<svg width="87" height="87" viewBox="0 0 87 87" fill="none" xmlns="http://www.w3.org/2000/svg">
<path d="M43.6667 2C20.6542 2 2 20.6542 2 43.6667C2 66.6792 20.6542 85.3333 43.6667 85.3333C66.6792 85.3333 85.3333 66.6792 85.3333 43.6667C85.3333 20.6542 66.6792 2 43.6667 2Z" stroke="#9B9B9B" stroke-width="3" stroke-linecap="round" stroke-linejoin="round"/>
<path d="M11.4629 70.1084C11.4629 70.1084 20.7504 58.25 43.6671 58.25C66.5837 58.25 75.8754 70.1084 75.8754 70.1084M43.6671 43.6667C46.9823 43.6667 50.1617 42.3497 52.5059 40.0055C54.8501 37.6613 56.1671 34.4819 56.1671 31.1667C56.1671 27.8515 54.8501 24.6721 52.5059 22.3279C50.1617 19.9836 46.9823 18.6667 43.6671 18.6667C40.3519 18.6667 37.1724 19.9836 34.8282 22.3279C32.484 24.6721 31.1671 27.8515 31.1671 31.1667C31.1671 34.4819 32.484 37.6613 34.8282 40.0055C37.1724 42.3497 40.3519 43.6667 43.6671 43.6667Z" stroke="#9B9B9B" stroke-width="3" stroke-linecap="round" stroke-linejoin="round"/>
</svg>
