<svg width="84" height="83" viewBox="0 0 84 83" fill="none" xmlns="http://www.w3.org/2000/svg">
<path d="M14.8958 0.546207C15.4263 0.799028 15.874 1.19521 16.1873 1.68914C16.5005 2.18307 16.6667 2.75466 16.6667 3.33809C16.6667 6.76599 17.9667 8.74014 19.5958 11.1438L19.7167 11.3173C21.1 13.3575 22.9167 16.0296 22.9167 19.8581C22.9167 23.7651 20.9292 27.2095 17.9 29.2539C18.6958 29.9147 19.4 30.7283 20.0083 31.703C21.9917 34.8831 22.9167 39.7441 22.9167 46.7238C22.9167 53.7944 21.9583 62.2856 20.3958 69.0671C19.6208 72.4372 18.6583 75.5471 17.5125 77.8805C16.9715 79.0416 16.255 80.114 15.3875 81.0606C14.5292 81.9321 13.2083 82.8613 11.4583 82.8613C9.70834 82.8613 8.3875 81.9321 7.53334 81.0606C6.66338 80.1159 5.94652 79.0431 5.40834 77.8805C4.25834 75.543 3.29584 72.4372 2.52084 69.063C0.895615 61.7229 0.0507246 54.2343 4.0146e-06 46.7197C4.0146e-06 39.7399 0.925004 34.8831 2.90834 31.703C3.47416 30.7799 4.18602 29.953 5.01667 29.2539C3.46989 28.213 2.20391 26.8123 1.32939 25.1744C0.454867 23.5365 -0.00156169 21.7112 4.0146e-06 19.8581C4.0146e-06 18.3383 3.60111e-06 15.724 1.59584 12.3498C3.15834 9.04576 6.12917 5.25028 11.5875 0.917908C12.0475 0.553163 12.6022 0.324735 13.1876 0.258969C13.7729 0.193202 14.3651 0.292776 14.8958 0.546207ZM6.25 19.854C6.25 21.2232 6.79874 22.5404 7.77549 23.5086C8.75224 24.4767 10.077 25.0206 11.4583 25.0206C12.8397 25.0206 14.1644 24.4767 15.1412 23.5086C16.1179 22.5404 16.6667 21.2273 16.6667 19.8581C16.6667 18.045 15.8958 16.7895 14.4083 14.5965L14.3583 14.5221C13.4042 13.1179 12.275 11.4535 11.475 9.31834C9.21251 11.5981 7.9625 13.4896 7.25834 14.9764C6.25 17.1075 6.25 18.6274 6.25 19.854ZM8.225 34.9574C7.19167 36.6177 6.25 40.0208 6.25 46.7238C6.25 53.3359 7.15834 61.3647 8.6125 67.6877C9.34584 70.8678 10.1792 73.4491 11.025 75.1671C11.1792 75.4851 11.325 75.7495 11.4583 75.9725C11.5917 75.7495 11.7375 75.4851 11.8917 75.1671C12.7375 73.4491 13.5708 70.8637 14.3042 67.6877C15.7625 61.3688 16.6667 53.3401 16.6667 46.7238C16.6667 40.0208 15.725 36.6177 14.6917 34.9574C14.38 34.3985 13.909 33.9431 13.3375 33.6482C12.7458 33.3928 12.1032 33.2741 11.4583 33.3013C10.625 33.3013 10.0292 33.4293 9.57917 33.6482C9.00769 33.9431 8.53665 34.3985 8.225 34.9574ZM33.3333 53.592C31.1259 53.225 28.9786 52.5637 26.95 51.6261C27.072 49.2837 27.1067 46.9376 27.0542 44.5927C28.9333 45.8441 31.0542 46.7651 33.3333 47.2772V35.3456C33.3333 33.7026 33.9918 32.1269 35.1639 30.9651C36.336 29.8033 37.9257 29.1506 39.5833 29.1506H56.25C56.2498 25.6843 55.2716 22.2871 53.4259 19.3428C51.5802 16.3986 48.9406 14.0247 45.8052 12.4893C42.6699 10.9539 39.1638 10.3182 35.6832 10.6541C32.2025 10.99 28.886 12.284 26.1083 14.39C25.275 12.1061 24.0875 10.3591 23.2625 9.14488L23.0958 8.89708C26.8394 6.28132 31.236 4.73522 35.8057 4.42754C40.3754 4.11986 44.9426 5.06243 49.0086 7.15236C53.0747 9.24229 56.4833 12.3993 58.8625 16.2786C61.2417 20.158 62.5 24.6107 62.5 29.1506H77.0833C78.741 29.1506 80.3307 29.8033 81.5028 30.9651C82.6749 32.1269 83.3334 33.7026 83.3334 35.3456V72.5157C83.3334 74.1587 82.6749 75.7344 81.5028 76.8962C80.3307 78.058 78.741 78.7107 77.0833 78.7107H39.5833C37.9257 78.7107 36.336 78.058 35.1639 76.8962C33.9918 75.7344 33.3333 74.1587 33.3333 72.5157V53.5879V53.592ZM39.5833 53.8522V72.5198H77.0833V35.3498H61.7083C60.4102 40.3265 57.5837 44.7803 53.62 48.0951C49.6562 51.4098 44.7511 53.4216 39.5833 53.8522ZM55.1833 35.3498H39.5833V47.6283C43.0842 47.2392 46.4038 45.8813 49.1626 43.7099C51.9213 41.5386 54.0078 38.6414 55.1833 35.3498Z" fill="black"/>
</svg>
