<svg width="100" height="100" viewBox="0 0 100 100" fill="none" xmlns="http://www.w3.org/2000/svg">
<path d="M89.4542 28.532C92.9542 34.8798 94.9458 42.161 94.9458 49.9048C94.9458 66.3381 85.9625 80.6981 72.6 88.4171L86.3292 49.0705C88.8917 42.7103 89.7458 37.6263 89.7458 33.1122C89.7458 31.4395 89.6375 29.8949 89.4542 28.532ZM56.2 28.9615C58.8958 28.8376 61.3333 28.5279 61.3333 28.5279C63.7583 28.2181 63.475 24.687 61.0542 24.815C61.0542 24.815 53.7417 25.3726 49.0542 25.3726C44.6208 25.3726 37.1792 24.7531 37.1792 24.7531C34.7417 24.6292 34.425 28.2842 36.8667 28.4081C36.8667 28.4081 39.1167 28.66 41.5542 28.7798L48.5542 47.7985L38.6792 77.0389L22.3083 28.8418C25.0125 28.7179 27.45 28.4288 27.45 28.4288C29.8875 28.119 29.6 24.5879 27.1792 24.7283C27.1792 24.7283 19.9042 25.2982 15.2042 25.2982C14.3708 25.2982 13.3792 25.2652 12.3292 25.2363C20.4625 13.3542 34.3125 5.36268 50 5.36268C61.7042 5.36268 72.3542 9.79005 80.3583 17.063C80.1667 17.0506 79.9792 17.0258 79.7708 17.0258C75.3542 17.0258 72.2208 20.8378 72.2208 24.9306C72.2208 28.6063 74.3583 31.7162 76.6375 35.3837C78.35 38.3573 80.3458 42.1693 80.3458 47.6787C80.3458 51.4577 78.8708 55.9139 76.925 62.047L72.4458 76.8531L56.1958 28.9037L56.2 28.9615ZM50 94.4427C45.5875 94.4427 41.3292 93.8109 37.3 92.6379L50.7875 53.7911L64.6 91.3205C64.7 91.5394 64.8083 91.7376 64.925 91.9358C60.2583 93.5589 55.2375 94.451 50 94.451M5.04583 49.9048C5.04583 43.4455 6.44583 37.3083 8.94167 31.7741L30.375 90.003C22.7824 86.3485 16.3805 80.65 11.9013 73.5591C7.42212 66.4681 5.04642 58.271 5.04583 49.9048ZM50 0.344727C22.4375 0.344727 0 22.5848 0 49.9048C0 77.2248 22.4375 99.4648 50 99.4648C77.5625 99.4648 100 77.2248 100 49.9048C100 22.5848 77.5625 0.344727 50 0.344727Z" fill="black"/>
</svg>
