<svg width="100" height="92" viewBox="0 0 100 92" fill="none" xmlns="http://www.w3.org/2000/svg">
<path d="M87.5 12.6644H26.7578L26.1719 10.3413C25.5208 7.37286 24.056 4.95293 21.7773 3.08153C19.4987 1.21012 16.7969 0.274414 13.6719 0.274414H4.10156C2.92969 0.274414 1.95312 0.661602 1.17188 1.43598C0.390625 2.21035 0 3.24285 0 4.53348C0 5.69504 0.390625 6.66301 1.17188 7.43739C1.95312 8.21177 2.92969 8.59895 4.10156 8.59895H13.6719C16.1458 8.59895 17.5781 9.69599 17.9688 11.8901L27.5391 61.4501C28.3203 64.1604 29.8503 66.3545 32.1289 68.0323C34.4076 69.7101 36.9141 70.549 39.6484 70.549H79.1016C80.4036 70.549 81.4453 70.1618 82.2266 69.3875C83.0078 68.6131 83.3984 67.6451 83.3984 66.4835C83.3984 63.6442 81.9661 62.2245 79.1016 62.2245H39.6484C37.8255 62.2245 36.5234 61.4501 35.7422 59.9014L35.3516 58.159H77.1484C79.7526 58.159 82.1289 57.3846 84.2773 55.8359C86.4258 54.2871 87.8906 52.2867 88.6719 49.8345L100 26.0224V25.0544C100 21.5697 98.7956 18.6336 96.3867 16.2459C93.9779 13.8583 91.0156 12.6644 87.5 12.6644ZM37.5 49.8345H33.7891L28.3203 20.989H37.5V49.8345ZM54.1016 49.8345H45.8984V20.989H54.1016V49.8345ZM70.8984 49.8345H62.5V20.989H70.8984V49.8345ZM81.25 46.5434V46.9306C80.8594 48.2212 80.1432 49.0601 79.1016 49.4473V20.989H87.5C89.8438 20.989 91.2109 22.086 91.6016 24.2801L81.25 46.5434ZM50 82.939C50 85.2622 49.1862 87.2304 47.5586 88.8436C45.931 90.4569 43.9453 91.2636 41.6016 91.2636C39.388 91.2636 37.4674 90.4569 35.8398 88.8436C34.2122 87.2304 33.3984 85.2622 33.3984 82.939C33.3984 80.6159 34.2122 78.6477 35.8398 77.0344C37.4674 75.4211 39.388 74.6145 41.6016 74.6145C43.9453 74.6145 45.931 75.4211 47.5586 77.0344C49.1862 78.6477 50 80.6159 50 82.939ZM83.3984 82.939C83.3984 85.2622 82.5846 87.2304 80.957 88.8436C79.3294 90.4569 77.3438 91.2636 75 91.2636C72.6562 91.2636 70.6706 90.4569 69.043 88.8436C67.4154 87.2304 66.6016 85.2622 66.6016 82.939C66.6016 80.6159 67.4154 78.6477 69.043 77.0344C70.6706 75.4211 72.6562 74.6145 75 74.6145C77.3438 74.6145 79.3294 75.4211 80.957 77.0344C82.5846 78.6477 83.3984 80.6159 83.3984 82.939Z" fill="black"/>
</svg>
