<svg width="255" height="264" viewBox="0 0 255 264" fill="none" xmlns="http://www.w3.org/2000/svg">
<path d="M206.171 95.8398C228.778 92.2419 245.238 105.288 247.505 146.154C249.19 176.566 233.325 206.596 207.984 220.619C174.314 239.26 124.099 233.467 107.569 203.168C97.6958 185.093 99.0556 156.877 112.781 145.559C126.536 134.199 141.891 153.576 166.977 142.797C194.853 130.799 187.941 98.7436 206.171 95.8398Z" fill="#DA415A"/>
<path d="M165.064 231.611C156.849 231.611 148.704 230.52 141.041 228.297C125.403 223.75 113.731 215.109 107.3 203.324C102.455 194.456 100.175 182.969 101.025 171.807C101.903 160.305 106.124 150.658 112.597 145.304C119.368 139.723 126.536 141.437 134.836 143.434C143.817 145.587 153.987 148.024 166.863 142.499C181.737 136.097 186.553 124.141 190.802 113.574C194.414 104.622 197.531 96.8881 206.129 95.5141C216.37 93.8851 224.911 95.7549 231.484 101.053C241.102 108.815 246.598 123.971 247.83 146.111C249.53 176.75 233.58 206.794 208.154 220.874C195.406 227.942 180.136 231.611 165.064 231.611ZM123.264 142.173C119.652 142.173 116.252 143.094 112.98 145.8C106.634 151.041 102.512 160.531 101.634 171.863C100.784 182.898 103.05 194.258 107.838 203.026C114.198 214.67 125.728 223.211 141.211 227.702C162.784 233.977 188.309 231.158 207.828 220.35C233.056 206.383 248.879 176.58 247.193 146.168C245.975 124.212 240.564 109.212 231.087 101.562C224.656 96.364 216.285 94.5508 206.228 96.1515C197.97 97.4688 194.924 105.047 191.383 113.815C187.077 124.481 182.204 136.578 167.104 143.08C154.044 148.704 143.76 146.239 134.681 144.057C130.615 143.08 126.847 142.173 123.264 142.173Z" fill="#DA415A"/>
<path d="M205.704 182.685C205.576 182.685 205.463 182.614 205.406 182.487C202.134 174.3 191.156 172.699 191.043 172.685C190.873 172.657 190.746 172.501 190.774 172.331C190.802 172.161 190.958 172.033 191.128 172.062C191.241 172.076 202.588 173.719 205.987 182.26C206.058 182.416 205.973 182.6 205.817 182.671C205.789 182.685 205.746 182.685 205.704 182.685Z" fill="black"/>
<path d="M190.264 187.926C190.25 187.926 190.236 187.926 190.236 187.926C190.066 187.912 189.938 187.756 189.952 187.586C190.774 179.626 186.269 174.399 186.227 174.356C186.114 174.229 186.128 174.03 186.255 173.917C186.383 173.804 186.581 173.818 186.694 173.945C186.737 174.002 191.411 179.427 190.576 187.657C190.561 187.813 190.42 187.926 190.264 187.926Z" fill="black"/>
<path d="M144.115 217.984C143.406 217.262 139.299 204.499 139.299 204.499L131.196 210.279L140.078 222.22L144.115 217.984Z" fill="white"/>
<path d="M140.092 222.546H140.077C139.978 222.546 139.893 222.489 139.851 222.418L130.969 210.477C130.913 210.406 130.899 210.321 130.913 210.236C130.927 210.151 130.969 210.08 131.04 210.024L139.143 204.244C139.228 204.188 139.327 204.174 139.426 204.202C139.525 204.23 139.596 204.315 139.624 204.4C141.196 209.273 143.859 217.22 144.369 217.758C144.483 217.885 144.483 218.069 144.369 218.197L140.332 222.446C140.262 222.517 140.177 222.546 140.092 222.546ZM131.649 210.364L140.12 221.752L143.732 217.956C142.797 216.242 140.007 207.672 139.143 205.023L131.649 210.364Z" fill="black"/>
<path d="M129.51 234.118L134.907 234.09C138.477 234.076 141.791 232.263 143.732 229.26L149.058 220.817C150.531 218.48 149.71 215.392 147.273 214.103C145.049 212.928 142.712 211.766 142.174 211.823C141.069 211.922 140.616 217.177 140.616 217.177L135.814 217.361C135.814 217.361 133.434 227.234 131.352 228.353C129.836 229.175 128.774 230.365 128.051 231.47C127.301 232.617 128.136 234.133 129.51 234.118Z" fill="black"/>
<path d="M130.049 232.334C129.893 232.334 129.765 232.22 129.737 232.064C129.709 231.894 129.836 231.739 130.006 231.71L137.386 230.605C138.958 230.365 140.318 229.458 141.14 228.098L147.656 217.205C147.741 217.064 147.939 217.007 148.081 217.092C148.222 217.177 148.279 217.375 148.194 217.517L141.678 228.41C140.771 229.926 139.242 230.96 137.485 231.215L130.105 232.319C130.091 232.334 130.063 232.334 130.049 232.334Z" fill="white"/>
<path d="M139.157 224.146C139.128 224.146 139.1 224.146 139.072 224.132L134.964 223.013C134.794 222.97 134.695 222.8 134.737 222.63C134.78 222.461 134.95 222.361 135.12 222.404L139.228 223.523C139.398 223.565 139.497 223.735 139.454 223.905C139.426 224.047 139.298 224.146 139.157 224.146Z" fill="white"/>
<path d="M137.018 226.257C136.989 226.257 136.961 226.257 136.947 226.243L134.199 225.563C134.029 225.52 133.93 225.35 133.972 225.18C134.015 225.01 134.185 224.911 134.355 224.954L137.103 225.633C137.273 225.676 137.372 225.846 137.329 226.016C137.287 226.158 137.159 226.257 137.018 226.257Z" fill="white"/>
<path d="M116.464 215.548L107.045 225.01L102.059 223.169L110.728 211.072L116.464 215.548Z" fill="white"/>
<path d="M107.045 225.322C107.002 225.322 106.974 225.322 106.931 225.308L101.945 223.48C101.86 223.452 101.775 223.367 101.747 223.282C101.719 223.183 101.733 223.084 101.79 223.013L110.473 210.916C110.529 210.845 110.6 210.803 110.685 210.789C110.77 210.774 110.855 210.803 110.926 210.845L116.649 215.321C116.719 215.378 116.762 215.463 116.762 215.548C116.762 215.633 116.734 215.732 116.677 215.789L107.271 225.251C107.215 225.294 107.13 225.322 107.045 225.322ZM102.554 223.027L106.974 224.642L115.997 215.576L110.813 211.525L102.554 223.027Z" fill="black"/>
<path d="M110.019 223.523C110.019 223.523 110.473 227.546 109.708 231.101C109.297 232.999 107.583 234.331 105.657 234.331H82.5394C80.8821 234.331 80.1455 232.277 81.4062 231.215C85.514 227.772 93.0639 222.517 102.356 220.973L104.948 224.6L110.019 223.523Z" fill="black"/>
<path d="M107.583 231.47H83.6442C83.4742 231.47 83.3325 231.328 83.3325 231.158C83.3325 230.988 83.4742 230.846 83.6442 230.846H107.583C107.753 230.846 107.895 230.988 107.895 231.158C107.895 231.328 107.753 231.47 107.583 231.47Z" fill="white"/>
<path d="M97.0017 227.22C96.8742 227.22 96.7609 227.149 96.7184 227.022L95.4577 223.948C95.3869 223.792 95.4719 223.608 95.6277 223.537C95.7835 223.466 95.9677 223.551 96.0385 223.707L97.2992 226.781C97.37 226.937 97.285 227.121 97.1292 227.192C97.0867 227.206 97.0442 227.22 97.0017 227.22Z" fill="white"/>
<path d="M92.8372 228.027C92.7098 228.027 92.5823 227.942 92.5398 227.815L91.619 225.039C91.5624 224.869 91.6474 224.699 91.8174 224.642C91.9873 224.585 92.1573 224.67 92.214 224.84L93.1347 227.617C93.1914 227.787 93.1064 227.957 92.9364 228.013C92.9081 228.027 92.8656 228.027 92.8372 228.027Z" fill="white"/>
<path d="M166.283 149.369C166.283 149.369 123.264 144.355 110.473 155.432C97.6817 166.509 130.672 214.117 130.672 214.117L141.097 206.383L131.196 172.727L170.957 161.438L166.283 149.369Z" fill="#09005D"/>
<path d="M189.952 171.282C183.706 173.266 172.529 175.829 156.891 175.617C152.458 175.56 148.35 178.011 146.338 181.963C141.706 191.043 131.692 207.389 115.374 217.97L107.583 213.777L127.471 169.002C129.284 164.908 132.683 161.735 136.89 160.191L176.311 145.729C176.311 145.729 188.536 142.315 194.528 153.222C195.604 155.177 197.587 151.692 198.055 153.265C199.684 158.676 195.321 169.583 189.952 171.282Z" fill="#09005D"/>
<path d="M118.49 189.555C118.448 189.555 118.405 189.541 118.363 189.527C118.207 189.456 118.136 189.272 118.207 189.116L127.201 168.874C129.043 164.738 132.542 161.466 136.791 159.908L155.673 152.981C155.843 152.925 156.013 153.01 156.07 153.166C156.126 153.321 156.041 153.505 155.886 153.562L137.004 160.489C132.91 161.99 129.539 165.135 127.768 169.129L118.773 189.371C118.717 189.484 118.603 189.555 118.49 189.555Z" fill="white"/>
<path d="M128.986 206.95C128.901 206.95 128.83 206.922 128.774 206.865C128.646 206.752 128.646 206.539 128.76 206.426C130.559 204.556 132.329 202.559 134.015 200.462C134.128 200.321 134.326 200.307 134.454 200.42C134.596 200.533 134.61 200.732 134.496 200.859C132.797 202.955 131.012 204.981 129.213 206.865C129.142 206.922 129.071 206.95 128.986 206.95Z" fill="white"/>
<path d="M134.256 200.972C134.185 200.972 134.114 200.944 134.057 200.902C133.916 200.788 133.902 200.59 134.015 200.462C134.851 199.428 135.672 198.366 136.48 197.289C136.579 197.148 136.777 197.119 136.919 197.219C137.06 197.318 137.089 197.516 136.99 197.658C136.182 198.734 135.361 199.811 134.511 200.845C134.44 200.93 134.341 200.972 134.256 200.972Z" fill="white"/>
<path d="M156.509 114.623C156.509 114.623 152.727 148.973 127.315 151.225L156.509 151.636C156.509 151.636 167.317 129.737 167.756 121.209C168.195 112.682 156.509 114.623 156.509 114.623Z" fill="white"/>
<path d="M156.509 151.961L127.315 151.551C127.145 151.551 127.017 151.409 127.003 151.253C127.003 151.083 127.116 150.942 127.286 150.927C140.262 149.78 147.429 139.978 151.154 131.96C155.206 123.235 156.183 114.679 156.197 114.594C156.211 114.453 156.325 114.339 156.452 114.325C156.721 114.283 162.954 113.291 166.198 116.181C167.543 117.385 168.181 119.085 168.067 121.238C167.628 129.737 157.231 150.899 156.792 151.791C156.735 151.891 156.622 151.961 156.509 151.961ZM130.998 150.97L156.311 151.324C157.33 149.213 167.033 129.156 167.444 121.195C167.543 119.24 166.991 117.711 165.787 116.648C163.096 114.254 157.939 114.75 156.792 114.906C156.594 116.365 155.446 124.226 151.721 132.215C146.933 142.542 139.808 148.958 130.998 150.97Z" fill="black"/>
<path d="M192.672 92.7943C187.743 91.6328 185.689 91.6186 167.77 92.2702C163.393 92.426 158.52 99.2819 158.011 103.631C159.399 107.809 165.49 127.059 154.271 143.151C152.684 145.431 150.517 147.939 147.543 150.347C149.214 151.692 151.806 153.449 155.291 154.483C161.07 156.197 163.974 154.341 168.634 154.483C180.958 154.851 185.476 168.577 193.437 166.849C195.562 166.396 198.381 164.724 201.015 159.171C202.517 154.554 203.848 149.143 204.585 143.023C206.596 126.436 203.31 112.625 200.364 103.956C199.486 101.237 198.48 94.1542 192.672 92.7943Z" fill="white"/>
<path d="M192.035 167.316C188.763 167.316 186.043 164.894 182.969 162.132C179.215 158.775 174.952 154.979 168.62 154.794C166.963 154.752 165.518 154.95 164.101 155.163C161.566 155.531 158.959 155.899 155.192 154.78C152.401 153.945 149.766 152.542 147.344 150.587C147.273 150.531 147.231 150.432 147.231 150.347C147.231 150.247 147.273 150.163 147.344 150.106C149.922 148.009 152.174 145.616 154.002 142.981C164.243 128.278 159.993 110.642 157.699 103.744C157.685 103.701 157.685 103.659 157.685 103.602C158.195 99.3386 163.11 92.1286 167.756 91.9586C185.972 91.2929 187.842 91.3354 192.743 92.4969C197.927 93.7151 199.4 99.2394 200.293 102.54C200.434 103.064 200.548 103.517 200.675 103.886C205.066 116.832 206.483 130.02 204.911 143.08C204.245 148.548 203.041 154.001 201.327 159.285C201.327 159.299 201.313 159.313 201.313 159.327C199.145 163.888 196.525 166.523 193.508 167.175C192.998 167.274 192.502 167.316 192.035 167.316ZM168.124 154.171C168.294 154.171 168.464 154.171 168.634 154.185C175.192 154.384 179.541 158.265 183.38 161.679C186.779 164.724 189.726 167.345 193.366 166.551C196.171 165.942 198.65 163.421 200.718 159.058C202.418 153.817 203.607 148.42 204.273 142.995C205.845 130.034 204.429 116.931 200.066 104.07C199.939 103.673 199.811 103.22 199.67 102.682C198.82 99.5227 197.403 94.225 192.587 93.0918C187.757 91.9586 185.901 91.9161 167.77 92.5819C163.436 92.7377 158.832 99.5227 158.308 103.602C160.645 110.642 164.88 128.448 154.512 143.335C152.713 145.913 150.531 148.279 148.024 150.347C150.29 152.131 152.755 153.42 155.362 154.185C158.988 155.262 161.424 154.908 164.002 154.539C165.305 154.355 166.637 154.171 168.124 154.171Z" fill="black"/>
<path d="M153.166 118.475C153.166 118.475 157.996 94.5508 166.353 92.5677L162.501 123.816L153.166 118.475Z" fill="white"/>
<path d="M162.501 124.141C162.444 124.141 162.387 124.127 162.345 124.099L153.01 118.759C152.897 118.688 152.826 118.56 152.854 118.419C153.053 117.427 157.826 94.2675 166.283 92.2702C166.453 92.2277 166.623 92.3411 166.665 92.4969C166.708 92.6669 166.594 92.8368 166.438 92.8793C158.804 94.6925 154.044 115.912 153.534 118.32L162.26 123.32L162.897 118.178C162.926 118.008 163.081 117.881 163.251 117.909C163.421 117.923 163.549 118.093 163.521 118.263L162.826 123.872C162.812 123.971 162.756 124.071 162.656 124.113C162.6 124.127 162.543 124.141 162.501 124.141Z" fill="black"/>
<path d="M177.969 81.3491L177.374 89.6214C177.246 90.698 176.467 91.5903 175.419 91.8595L172.515 92.6102L174.399 94.0409C178.578 97.228 184.371 97.8796 188.55 94.7066L191.539 92.5394L187.927 91.6328C186.893 91.4062 186.085 89.9189 185.901 88.8707L184.3 77.9211L177.969 81.3491Z" fill="white"/>
<path d="M182.204 97.1147C179.484 97.1147 176.666 96.1656 174.215 94.2958L172.331 92.8652C172.232 92.7943 172.19 92.6669 172.218 92.5535C172.246 92.4402 172.331 92.3411 172.444 92.3127L175.348 91.562C176.283 91.3212 176.949 90.5421 177.076 89.5931L177.671 81.3349C177.686 81.2216 177.742 81.1366 177.841 81.0799L184.187 77.6662C184.272 77.6237 184.386 77.6095 184.471 77.6662C184.556 77.7086 184.626 77.7936 184.641 77.907L186.241 88.8565C186.411 89.763 187.119 91.1512 188.026 91.3495L191.638 92.2561C191.751 92.2844 191.85 92.3836 191.865 92.4969C191.893 92.6102 191.836 92.7377 191.737 92.8085L188.748 94.9758C186.836 96.4064 184.556 97.1147 182.204 97.1147ZM173.209 92.7519L174.583 93.8001C178.96 97.1288 184.499 97.398 188.366 94.4658L190.816 92.6952L187.856 91.9586C186.624 91.6895 185.788 90.0322 185.604 88.9556L184.074 78.4452L178.28 81.5615L177.7 89.6639C177.544 90.8962 176.694 91.8736 175.504 92.1853L173.209 92.7519Z" fill="black"/>
<path d="M168.563 69.833C170.546 68.7848 168.946 72.0569 175.49 66.3909C178.096 64.1387 178.195 68.3457 178.861 67.7649C181.368 65.6118 181.269 65.6827 182.856 65.4135C183.904 65.2294 185.292 66.6742 185.717 68.034C186.269 69.833 185.065 70.9095 185.476 75.0599C185.759 77.9779 186.68 79.4085 185.844 80.2301C184.995 81.0658 183.606 80.0459 182.615 80.8817C181.326 81.9724 182.799 84.4088 181.85 86.1227C181.255 87.2134 179.272 88.4883 175.136 88.3891C174.47 88.3749 173.889 87.8792 173.79 87.2134C173.648 86.3635 173.478 85.287 173.393 84.2388C173.025 79.2669 174.088 77.6096 173.039 76.7597C171.425 75.4565 168.677 77.8787 167.515 76.7455C166.297 75.5556 165.844 71.2637 168.563 69.833Z" fill="black"/>
<path d="M178.465 72.6235L178.38 73.9833C178.337 74.6207 178.351 75.2582 178.394 75.9098C178.493 77.1138 178.635 79.1819 178.62 80.3434C178.606 82.0574 173.337 82.3831 173.337 82.3831L172.671 81.6324L172.048 81.6607C171.935 81.6607 171.807 81.6466 171.694 81.5899C171.425 81.4483 171.297 81.165 171.34 80.8958C171.595 79.3943 172.02 76.0656 171.538 73.4734C171.552 73.445 174.484 71.0653 178.465 72.6235Z" fill="white"/>
<path d="M173.337 82.6806C173.252 82.6806 173.167 82.6381 173.11 82.5815L172.544 81.9441L172.076 81.9582C171.892 81.9724 171.722 81.9299 171.566 81.8591C171.184 81.6608 170.985 81.25 171.042 80.825C171.269 79.4794 171.722 76.0939 171.24 73.5017C171.226 73.3884 171.269 73.2751 171.354 73.2043C171.481 73.1051 174.484 70.7254 178.578 72.326C178.705 72.3685 178.79 72.496 178.776 72.6377L178.691 73.9975C178.649 74.6208 178.663 75.2582 178.705 75.8814C178.79 77.043 178.946 79.1536 178.932 80.3292C178.918 82.2274 174.286 82.624 173.351 82.6806C173.351 82.6806 173.351 82.6806 173.337 82.6806ZM172.671 81.3066C172.756 81.3066 172.841 81.3491 172.898 81.4058L173.464 82.0432C175.518 81.8874 178.295 81.2783 178.309 80.3292C178.323 79.1677 178.167 77.0713 178.082 75.9239C178.025 75.2724 178.025 74.6066 178.068 73.955L178.139 72.8218C174.937 71.6745 172.501 73.1476 171.892 73.5726C172.317 76.1223 171.935 79.2527 171.651 80.91C171.623 81.0658 171.708 81.2075 171.835 81.2783C171.878 81.3066 171.949 81.3208 172.02 81.3066H172.671Z" fill="black"/>
<path d="M179.385 76.8022C179.385 76.8022 179.584 73.53 181.043 73.9408C182.516 74.3658 182.204 77.9495 179.385 76.8022Z" fill="white"/>
<path d="M107.356 154.511H165.022C166.396 154.511 167.515 153.392 167.515 152.018V151.154H104.849V152.018C104.849 153.392 105.968 154.511 107.356 154.511Z" fill="white"/>
<path d="M165.022 154.823H107.356C105.812 154.823 104.552 153.562 104.552 152.018V151.154C104.552 150.984 104.693 150.842 104.863 150.842H167.529C167.699 150.842 167.841 150.984 167.841 151.154V152.018C167.841 153.562 166.58 154.823 165.022 154.823ZM105.175 151.452V152.004C105.175 153.208 106.152 154.185 107.356 154.185H165.022C166.226 154.185 167.203 153.208 167.203 152.004V151.452H105.175Z" fill="black"/>
<path d="M104.849 151.197H140.715L129.326 117.668C128.646 116.62 127.456 115.982 126.182 115.982H95.8685C94.4945 115.982 93.6021 117.314 94.0554 118.49C94.2396 118.957 94.4237 119.425 94.5795 119.892L104.849 151.197Z" fill="white"/>
<path d="M140.715 151.522H104.849C104.707 151.522 104.594 151.437 104.552 151.31L94.2678 120.005C94.1545 119.679 94.027 119.339 93.8996 119.014C93.8429 118.886 93.8004 118.745 93.7437 118.617C93.4888 117.965 93.5879 117.229 93.9987 116.648C94.4237 116.039 95.1036 115.685 95.8543 115.685H126.167C127.556 115.685 128.83 116.365 129.581 117.512C129.595 117.541 129.609 117.555 129.609 117.583L140.998 151.126C141.026 151.225 141.012 151.324 140.956 151.409C140.913 151.466 140.814 151.522 140.715 151.522ZM105.076 150.885H140.276L129.043 117.796C128.405 116.846 127.343 116.28 126.182 116.28H95.8685C95.316 116.28 94.8344 116.535 94.5228 116.974C94.2395 117.385 94.1687 117.909 94.3387 118.376C94.3953 118.504 94.4378 118.645 94.4945 118.773C94.622 119.099 94.7636 119.453 94.8769 119.793L105.076 150.885Z" fill="black"/>
<path d="M118.164 133.136C118.589 134.553 117.937 136.012 116.705 136.38C115.473 136.748 114.127 135.898 113.702 134.482C113.277 133.065 113.929 131.606 115.161 131.238C116.394 130.87 117.739 131.72 118.164 133.136Z" fill="black"/>
<path d="M204.174 124.637C204.174 124.637 202.417 146.919 197.431 155.347C191.482 165.418 161.495 151.848 161.495 151.848L158.01 149.879C155.645 148.548 152.84 148.25 150.262 149.086L144.624 150.899C144.624 150.899 149.271 145.318 153.237 143.193C155.092 142.188 157.5 143.137 159.526 144.426C163.025 146.635 167.133 147.684 171.269 147.556L183.196 147.202C185.193 147.145 186.836 145.587 187.02 143.59L188.819 118.532L204.174 124.637Z" fill="white"/>
<path d="M188.352 159.398C177.586 159.398 162.26 152.542 161.381 152.131L157.869 150.148C155.588 148.859 152.854 148.576 150.361 149.383L144.723 151.197C144.596 151.239 144.44 151.182 144.369 151.069C144.284 150.956 144.299 150.8 144.384 150.687C144.582 150.46 149.115 145.035 153.081 142.896C154.752 142.004 156.976 142.414 159.696 144.142C163.081 146.281 167.076 147.344 171.254 147.216L183.181 146.862C185.023 146.805 186.538 145.375 186.694 143.547L188.493 118.49C188.493 118.39 188.55 118.306 188.635 118.249C188.72 118.192 188.819 118.192 188.918 118.221L204.273 124.311C204.401 124.368 204.486 124.496 204.471 124.623C204.401 125.53 202.644 147.075 197.686 155.474C196.029 158.364 192.53 159.398 188.352 159.398ZM153.237 148.307C154.951 148.307 156.65 148.746 158.166 149.61L161.651 151.579C161.92 151.707 191.425 164.908 197.162 155.191C201.78 147.372 203.636 127.229 203.834 124.836L189.102 118.985L187.332 143.618C187.148 145.771 185.377 147.457 183.21 147.514L171.283 147.868C166.962 147.995 162.855 146.89 159.37 144.695C157.642 143.604 155.206 142.499 153.392 143.477C150.446 145.063 147.075 148.633 145.616 150.262L150.177 148.789C151.169 148.463 152.203 148.307 153.237 148.307Z" fill="black"/>
<path d="M206.964 126.21C206.964 126.21 208.848 111.846 206.766 106.789C201.936 94.9899 194.556 93.3468 193.366 92.9927L186.567 122.144L206.964 126.21Z" fill="white"/>
<path d="M206.964 126.521C206.95 126.521 206.922 126.521 206.908 126.521L186.51 122.456C186.425 122.442 186.354 122.385 186.312 122.314C186.269 122.243 186.255 122.158 186.269 122.073L187.658 116.124C187.7 115.954 187.87 115.855 188.04 115.883C188.21 115.926 188.309 116.096 188.281 116.266L186.963 121.903L206.709 125.827C206.979 123.646 208.338 111.407 206.497 106.903C204.401 101.803 200.448 95.3015 193.479 93.3326L193.309 93.2759C193.139 93.2334 193.054 93.0493 193.097 92.8793C193.154 92.7093 193.324 92.6243 193.493 92.6668L193.663 92.7093C199.386 94.3241 204.018 99.1402 207.092 106.648C209.174 111.719 207.389 125.629 207.304 126.224C207.29 126.309 207.248 126.394 207.177 126.436C207.092 126.507 207.035 126.521 206.964 126.521Z" fill="black"/>
<path d="M103.475 259.445C97.1292 259.445 91.0383 258.397 85.3298 256.329C85.1598 256.272 85.089 256.088 85.1457 255.932C85.2023 255.777 85.3865 255.692 85.5423 255.748C92.8231 258.383 100.713 259.346 108.985 258.567C112.002 258.284 115.005 257.958 117.952 257.576C118.122 257.547 118.278 257.675 118.306 257.845C118.334 258.015 118.207 258.171 118.037 258.199C115.09 258.581 112.073 258.907 109.042 259.19C107.158 259.36 105.302 259.445 103.475 259.445Z" fill="black"/>
<path d="M2.62052 157.953C1.17569 157.953 0 156.778 0 155.333C0 153.888 1.17569 152.712 2.62052 152.712C4.06535 152.712 5.24104 153.888 5.24104 155.333C5.22688 156.778 4.05118 157.953 2.62052 157.953ZM2.62052 153.35C1.52982 153.35 0.637424 154.242 0.637424 155.333C0.637424 156.424 1.52982 157.316 2.62052 157.316C3.71122 157.316 4.60362 156.424 4.60362 155.333C4.60362 154.242 3.71122 153.35 2.62052 153.35Z" fill="black"/>
<path d="M5.39696 143.916C5.22698 143.916 5.08533 143.774 5.08533 143.604V141.168C5.08533 140.998 5.22698 140.856 5.39696 140.856C5.56694 140.856 5.70859 140.998 5.70859 141.168V143.604C5.70859 143.774 5.56694 143.916 5.39696 143.916Z" fill="black"/>
<path d="M5.39696 149.582C5.22698 149.582 5.08533 149.44 5.08533 149.27V146.834C5.08533 146.664 5.22698 146.522 5.39696 146.522C5.56694 146.522 5.70859 146.664 5.70859 146.834V149.27C5.70859 149.44 5.56694 149.582 5.39696 149.582Z" fill="black"/>
<path d="M3.76802 145.531H1.34581C1.17583 145.531 1.03418 145.389 1.03418 145.219C1.03418 145.049 1.17583 144.907 1.34581 144.907H3.78218C3.95216 144.907 4.09381 145.049 4.09381 145.219C4.07965 145.389 3.95216 145.531 3.76802 145.531Z" fill="black"/>
<path d="M9.43403 145.531H7.01182C6.84185 145.531 6.7002 145.389 6.7002 145.219C6.7002 145.049 6.84185 144.907 7.01182 144.907H9.4482C9.61818 144.907 9.75983 145.049 9.75983 145.219C9.75983 145.389 9.61818 145.531 9.43403 145.531Z" fill="black"/>
<path d="M218.778 53.9682C218.65 53.9682 218.523 53.8832 218.48 53.7557L218.027 52.3392C217.97 52.1693 218.07 51.9993 218.225 51.9426C218.395 51.886 218.565 51.9851 218.622 52.1409L219.075 53.5574C219.132 53.7274 219.033 53.8974 218.877 53.954C218.849 53.9682 218.806 53.9682 218.778 53.9682Z" fill="black"/>
<path d="M220.379 58.926C220.251 58.926 220.124 58.841 220.081 58.7135L219.628 57.297C219.571 57.127 219.67 56.957 219.826 56.9004C219.996 56.8437 220.166 56.9429 220.223 57.0987L220.676 58.5152C220.733 58.6852 220.634 58.8552 220.478 58.9118C220.435 58.926 220.407 58.926 220.379 58.926Z" fill="black"/>
<path d="M216.157 56.7728C216.03 56.7728 215.902 56.6878 215.86 56.5603C215.803 56.3904 215.902 56.2204 216.058 56.1637L217.475 55.7104C217.645 55.6538 217.815 55.7529 217.871 55.9088C217.928 56.0787 217.829 56.2487 217.673 56.3054L216.256 56.7587C216.228 56.7587 216.2 56.7728 216.157 56.7728Z" fill="black"/>
<path d="M221.115 55.1722C220.988 55.1722 220.86 55.0872 220.818 54.9598C220.761 54.7898 220.86 54.6198 221.016 54.5631L222.432 54.1099C222.602 54.0532 222.772 54.1524 222.829 54.3082C222.886 54.4781 222.787 54.6481 222.631 54.7048L221.214 55.1581C221.186 55.1722 221.143 55.1722 221.115 55.1722Z" fill="black"/>
<path d="M202.46 40.0724C202.389 40.0724 202.318 40.0441 202.262 40.0016C200.831 38.7834 199.358 37.5935 197.885 36.4462C197.743 36.3329 197.729 36.1487 197.828 36.0071C197.941 35.8654 198.126 35.8513 198.267 35.9504C199.755 37.0978 201.228 38.3018 202.673 39.52C202.8 39.6333 202.828 39.8316 202.715 39.9591C202.63 40.0441 202.545 40.0724 202.46 40.0724Z" fill="black"/>
<path d="M198.055 36.517C197.984 36.517 197.913 36.4887 197.856 36.4462C177.289 20.4823 152.741 11.36 128.76 10.7651C128.59 10.7651 128.448 10.6235 128.448 10.4393C128.448 10.2693 128.59 10.1277 128.76 10.1277C128.76 10.1277 128.76 10.1277 128.774 10.1277C140.899 10.4251 153.053 12.819 164.923 17.2385C176.708 21.6296 187.927 27.9189 198.253 35.9363C198.395 36.0496 198.409 36.2337 198.31 36.3754C198.253 36.4745 198.154 36.517 198.055 36.517Z" fill="black"/>
<path d="M188.252 37.2819C188.196 37.2819 188.125 37.2677 188.083 37.2252C172.444 26.729 154.922 20.3264 137.386 18.7258C137.216 18.7116 137.089 18.5558 137.103 18.3858C137.117 18.2158 137.273 18.0884 137.443 18.1025C155.078 19.7173 172.714 26.1624 188.437 36.7153C188.578 36.8144 188.621 37.0128 188.522 37.1544C188.451 37.2252 188.352 37.2819 188.252 37.2819Z" fill="black"/>
<path d="M206.993 46.2767C206.724 46.2767 206.455 46.2342 206.185 46.135C204.911 45.6959 204.245 44.2936 204.684 43.0329C205.123 41.7581 206.511 41.0923 207.786 41.5314C209.061 41.9705 209.727 43.3729 209.288 44.6336C209.075 45.2427 208.636 45.7384 208.041 46.0359C207.715 46.1917 207.361 46.2767 206.993 46.2767ZM206.993 42.0272C206.242 42.0272 205.534 42.4946 205.279 43.2454C204.953 44.1944 205.449 45.2285 206.398 45.5543C206.851 45.7101 207.347 45.6818 207.786 45.4693C208.225 45.2568 208.551 44.8885 208.707 44.4352C209.033 43.4862 208.537 42.4522 207.588 42.1264C207.389 42.0555 207.191 42.0272 206.993 42.0272Z" fill="black"/>
<path d="M124.907 12.9181C124.878 12.9181 124.864 12.9181 124.836 12.904L120.629 11.9832C120.53 11.9549 120.431 11.8841 120.402 11.7849C120.36 11.6858 120.388 11.5725 120.459 11.4875C121.705 9.92933 123.094 8.47033 123.108 8.45617C123.179 8.38534 123.292 8.34285 123.391 8.37118C123.49 8.38534 123.589 8.47033 123.618 8.56949L125.19 12.5074C125.233 12.6207 125.218 12.734 125.133 12.8331C125.091 12.8756 125.006 12.9181 124.907 12.9181ZM121.266 11.4875L124.397 12.1674L123.235 9.24941C122.81 9.70269 122.031 10.5667 121.266 11.4875Z" fill="black"/>
<path d="M242.221 262.916H181.567C177.926 262.916 175.207 259.573 175.929 256.003L185.136 211.27C185.915 207.502 189.216 204.811 193.069 204.811H245.097L242.221 262.916Z" fill="white"/>
<path d="M242.221 263.227H181.567C179.739 263.227 178.025 262.42 176.864 260.989C175.702 259.573 175.249 257.731 175.617 255.932L184.825 211.199C185.632 207.304 189.088 204.485 193.054 204.485H245.082C245.167 204.485 245.252 204.513 245.309 204.584C245.366 204.641 245.394 204.726 245.394 204.811L242.518 262.916C242.533 263.1 242.391 263.227 242.221 263.227ZM193.054 205.123C189.386 205.123 186.17 207.729 185.434 211.341L176.226 256.074C175.901 257.675 176.297 259.332 177.331 260.607C178.365 261.882 179.909 262.604 181.538 262.604H241.895L244.728 205.123H193.054Z" fill="black"/>
<path d="M249.984 262.916H238.212C234.572 262.916 231.852 259.573 232.575 256.003L242.717 206.723C242.944 205.604 243.935 204.797 245.082 204.797H248.114C249.374 204.797 250.409 205.76 250.522 207.006L254.672 257.83C254.885 260.578 252.732 262.916 249.984 262.916Z" fill="white"/>
<path d="M249.983 263.227H238.212C236.385 263.227 234.671 262.42 233.51 260.989C232.348 259.573 231.895 257.731 232.277 255.932L242.419 206.652C242.674 205.392 243.808 204.471 245.082 204.471H248.114C249.516 204.471 250.72 205.576 250.833 206.978L254.984 257.802C255.097 259.19 254.615 260.578 253.681 261.598C252.717 262.647 251.386 263.227 249.983 263.227ZM245.082 205.123C244.091 205.123 243.227 205.831 243.028 206.794L232.886 256.074C232.561 257.675 232.957 259.332 233.991 260.607C235.025 261.882 236.569 262.604 238.198 262.604H249.969C251.202 262.604 252.349 262.108 253.185 261.202C254.02 260.295 254.431 259.119 254.332 257.887L250.182 207.063C250.097 205.987 249.176 205.137 248.085 205.137H245.082V205.123Z" fill="black"/>
<path d="M233.963 228.608H186.468C186.298 228.608 186.156 228.466 186.156 228.296C186.156 228.126 186.298 227.985 186.468 227.985H233.963C235.238 227.985 236.314 227.121 236.612 225.888L240.804 208.21C240.847 208.04 241.017 207.941 241.187 207.984C241.357 208.026 241.456 208.196 241.414 208.366L237.221 226.044C236.867 227.546 235.521 228.608 233.963 228.608Z" fill="black"/>
<path d="M215.633 228.282L214.302 233.651C214.089 234.557 213.282 235.195 212.347 235.195H202.941C201.922 235.195 201.171 234.217 201.454 233.226L202.828 228.268H215.633V228.282Z" fill="white"/>
<path d="M212.333 235.521H202.927C202.347 235.521 201.794 235.251 201.44 234.784C201.086 234.316 200.973 233.722 201.128 233.155L202.502 228.197C202.545 228.056 202.658 227.971 202.8 227.971H215.605C215.704 227.971 215.789 228.013 215.846 228.098C215.902 228.169 215.931 228.268 215.902 228.367L214.571 233.736C214.359 234.784 213.424 235.521 212.333 235.521ZM203.055 228.608L201.738 233.325C201.638 233.693 201.709 234.09 201.95 234.401C202.191 234.713 202.545 234.883 202.927 234.883H212.333C213.126 234.883 213.806 234.345 213.99 233.58L215.223 228.594H203.055V228.608Z" fill="black"/>
<path d="M229.628 258.737H179.173C179.003 258.737 178.861 258.595 178.861 258.425C178.861 258.255 179.003 258.114 179.173 258.114H229.628C229.798 258.114 229.94 258.255 229.94 258.425C229.94 258.595 229.798 258.737 229.628 258.737Z" fill="black"/>
<path d="M205.052 202.771H201.114C200.052 202.771 199.188 203.635 199.188 204.698H206.979C206.979 203.635 206.115 202.771 205.052 202.771Z" fill="black"/>
<path d="M206.979 205.009H199.188C199.018 205.009 198.876 204.868 198.876 204.698C198.876 203.465 199.882 202.46 201.114 202.46H205.052C206.284 202.46 207.29 203.465 207.29 204.698C207.29 204.868 207.149 205.009 206.979 205.009ZM199.528 204.386H206.624C206.483 203.649 205.817 203.083 205.038 203.083H201.1C200.321 203.083 199.669 203.649 199.528 204.386Z" fill="black"/>
<path d="M236.612 202.771H232.674C231.611 202.771 230.747 203.635 230.747 204.698H238.538C238.538 203.635 237.674 202.771 236.612 202.771Z" fill="black"/>
<path d="M238.538 205.009H230.747C230.577 205.009 230.436 204.868 230.436 204.698C230.436 203.465 231.441 202.46 232.674 202.46H236.612C237.844 202.46 238.85 203.465 238.85 204.698C238.85 204.868 238.708 205.009 238.538 205.009ZM231.087 204.386H238.184C238.042 203.649 237.377 203.083 236.598 203.083H232.66C231.895 203.083 231.243 203.649 231.087 204.386Z" fill="black"/>
<path d="M235.578 202.672L236.215 198.904C236.668 196.227 234.869 194.06 232.192 194.06H208.579C205.902 194.06 203.367 196.227 202.927 198.904L202.29 202.672H204.103L204.599 199.74C204.953 197.658 206.922 195.972 209.004 195.972H231.158C233.241 195.972 234.643 197.658 234.289 199.74L233.793 202.672H235.578Z" fill="white"/>
<path d="M235.578 202.984H233.765C233.665 202.984 233.58 202.941 233.524 202.87C233.467 202.799 233.439 202.7 233.453 202.615L233.949 199.683C234.105 198.762 233.892 197.898 233.354 197.261C232.83 196.638 232.036 196.284 231.13 196.284H208.976C207.049 196.284 205.208 197.856 204.882 199.796L204.386 202.729C204.358 202.884 204.231 202.984 204.075 202.984H202.262C202.163 202.984 202.078 202.941 202.021 202.87C201.964 202.799 201.936 202.7 201.95 202.615L202.587 198.847C203.055 196.029 205.732 193.748 208.551 193.748H232.164C233.538 193.748 234.742 194.286 235.564 195.25C236.399 196.241 236.725 197.558 236.498 198.947L235.861 202.714C235.861 202.87 235.733 202.984 235.578 202.984ZM234.147 202.36H235.323L235.918 198.847C236.116 197.629 235.847 196.496 235.124 195.66C234.43 194.839 233.382 194.371 232.206 194.371H208.593C206.072 194.371 203.678 196.425 203.253 198.947L202.687 202.346H203.862L204.316 199.669C204.684 197.445 206.809 195.646 209.033 195.646H231.187C232.277 195.646 233.24 196.071 233.892 196.836C234.558 197.615 234.813 198.663 234.629 199.768L234.147 202.36Z" fill="black"/>
<path d="M231.016 192.502H210.265C209.429 192.502 208.636 193.182 208.494 194.017L208.182 195.83C208.041 196.666 208.607 197.346 209.443 197.346H230.195C231.031 197.346 231.824 196.666 231.965 195.83L232.277 194.017C232.419 193.182 231.852 192.502 231.016 192.502Z" fill="black"/>
<path d="M230.209 197.658H209.457C208.962 197.658 208.523 197.459 208.225 197.105C207.928 196.751 207.8 196.269 207.885 195.774L208.197 193.961C208.367 192.983 209.287 192.19 210.279 192.19H231.031C231.526 192.19 231.966 192.388 232.263 192.742C232.56 193.097 232.688 193.578 232.603 194.074L232.291 195.887C232.121 196.85 231.186 197.658 230.209 197.658ZM210.279 192.813C209.585 192.813 208.933 193.38 208.82 194.06L208.508 195.873C208.452 196.184 208.523 196.482 208.707 196.694C208.891 196.907 209.146 197.02 209.457 197.02H230.209C230.903 197.02 231.555 196.454 231.668 195.774L231.98 193.961C232.036 193.649 231.966 193.351 231.781 193.139C231.597 192.927 231.342 192.813 231.031 192.813H210.279Z" fill="black"/>
<path d="M238.113 258.737C238 258.737 237.901 258.68 237.844 258.581C237.759 258.425 237.816 258.241 237.957 258.156L245.932 253.609V208.281C245.932 208.111 246.074 207.97 246.244 207.97C246.414 207.97 246.555 208.111 246.555 208.281V253.793C246.555 253.907 246.499 254.006 246.4 254.063L238.269 258.694C238.212 258.723 238.156 258.737 238.113 258.737Z" fill="black"/>
<path d="M87.0721 35.4262C95.6618 35.4262 102.625 28.4628 102.625 19.8731C102.625 11.2833 95.6618 4.31995 87.0721 4.31995C78.4823 4.31995 71.5189 11.2833 71.5189 19.8731C71.5189 28.4628 78.4823 35.4262 87.0721 35.4262Z" fill="#FFB600"/>
<path d="M87.0862 35.7378C86.7887 35.7378 86.4771 35.7237 86.1655 35.7095C81.9302 35.4687 78.049 33.5989 75.2301 30.4401C72.4113 27.2813 70.9806 23.216 71.2214 18.9807C71.4622 14.7453 73.332 10.8641 76.4908 8.04531C79.6496 5.22648 83.715 3.79582 87.9503 4.03662C92.1856 4.27743 96.0668 6.14721 98.8856 9.30599C101.704 12.4648 103.135 16.5301 102.894 20.7655C102.654 25.0008 100.784 28.882 97.625 31.7008C94.707 34.3213 90.9957 35.7378 87.0862 35.7378ZM87.0437 4.63155C83.3042 4.63155 79.7346 5.99139 76.9158 8.49859C73.8845 11.2041 72.0855 14.9437 71.8589 19.009C71.6322 23.0743 72.9921 26.9839 75.7117 30.0152C78.4172 33.0465 82.1568 34.8454 86.2221 35.0721C90.2875 35.2987 94.197 33.9389 97.2283 31.2192C100.26 28.5137 102.059 24.7741 102.285 20.7088C102.512 16.6434 101.152 12.7339 98.4324 9.70261C95.7268 6.67131 91.9873 4.87236 87.9219 4.64572C87.6386 4.64572 87.3412 4.63155 87.0437 4.63155Z" fill="#FFB600"/>
<path d="M97.0081 29.8078C102.496 24.3203 102.496 15.4234 97.0081 9.9359C91.5206 4.44844 82.6237 4.44844 77.1362 9.9359C71.6488 15.4234 71.6488 24.3203 77.1362 29.8078C82.6237 35.2952 91.5206 35.2952 97.0081 29.8078Z" fill="white"/>
<path d="M95.8563 28.6559C100.708 23.8046 100.708 15.9391 95.8563 11.0877C91.005 6.23643 83.1394 6.23644 78.2881 11.0877C73.4368 15.9391 73.4368 23.8046 78.2881 28.6559C83.1394 33.5072 91.0049 33.5072 95.8563 28.6559Z" fill="#FFE027"/>
<path d="M87.0862 33.004C86.8312 33.004 86.5762 32.9898 86.3354 32.9756C82.8367 32.7773 79.6212 31.2333 77.284 28.6128C74.9468 25.9923 73.7711 22.621 73.9694 19.1223C73.9836 18.9523 74.1252 18.8107 74.2952 18.8248C74.4652 18.839 74.6068 18.9806 74.5927 19.1506C74.4085 22.4794 75.5276 25.6948 77.7515 28.1879C79.9754 30.6809 83.035 32.1541 86.3779 32.3382C89.7067 32.5224 92.9222 31.4033 95.4152 29.1794C97.9082 26.9555 99.3814 23.8959 99.5655 20.553C99.7497 17.2242 98.6306 14.0087 96.4067 11.5157C94.1828 9.02266 91.1232 7.5495 87.7803 7.36536C83.6158 7.12456 79.6354 8.966 77.114 12.2806C77.0149 12.4223 76.8166 12.4506 76.6749 12.3373C76.5333 12.2381 76.505 12.0398 76.6183 11.8982C79.2671 8.41357 83.46 6.48713 87.8228 6.72794C91.3215 6.92625 94.537 8.47023 96.8742 11.0907C99.2114 13.7113 100.387 17.0825 100.189 20.5813C99.9905 24.08 98.4465 27.2955 95.826 29.6327C93.3896 31.8424 90.3158 33.004 87.0862 33.004Z" fill="black"/>
<path d="M86.4346 27.3239L86.3354 25.5958C85.1172 25.61 83.9274 25.355 83.205 24.9867L83.6299 22.8336C84.409 23.2019 85.4997 23.5277 86.6896 23.4569C87.7236 23.4002 88.4035 22.9611 88.361 22.2387C88.3185 21.5446 87.7236 21.148 86.3496 20.7655C84.3807 20.2273 83.0067 19.3915 82.9075 17.6351C82.8225 16.0344 83.8707 14.7313 85.783 14.2355L85.6838 12.5074L87.4545 12.4082L87.5395 14.0088C88.7576 13.9947 89.5934 14.2072 90.2025 14.4621L89.8058 16.5444C89.3242 16.3744 88.4602 16.0061 87.157 16.0769C85.9813 16.1478 85.6272 16.6719 85.6555 17.1818C85.6838 17.7767 86.3496 18.1309 87.9219 18.6125C90.1175 19.2499 91.0524 20.1989 91.1374 21.8279C91.2223 23.4427 90.16 24.8875 88.1061 25.3692L88.2052 27.2106L86.4346 27.3239Z" fill="black"/>
<path d="M42.7795 92.6527C48.6874 86.7448 48.6874 77.1663 42.7795 71.2584C36.8717 65.3506 27.2931 65.3506 21.3853 71.2584C15.4774 77.1663 15.4774 86.7448 21.3853 92.6527C27.2931 98.5606 36.8717 98.5606 42.7795 92.6527Z" fill="#087F5D"/>
<path d="M32.1122 97.398C26.7862 97.398 21.6018 94.65 18.7405 89.7206C14.4626 82.3548 16.9698 72.8926 24.3356 68.6148C27.9052 66.5467 32.0555 65.9801 36.05 67.0425C40.0304 68.1048 43.3733 70.6404 45.4414 74.2099C49.7192 81.5757 47.212 91.0379 39.8463 95.3157C37.4099 96.7181 34.7327 97.398 32.1122 97.398ZM32.0555 67.1416C29.4775 67.1416 26.9278 67.8215 24.6331 69.153C17.5648 73.2609 15.1709 82.3406 19.2646 89.409C23.3724 96.4773 32.4521 98.8712 39.5205 94.7775C46.5888 90.6696 48.9827 81.5899 44.889 74.5216C42.9059 71.0936 39.7046 68.6573 35.8801 67.6515C34.6052 67.2974 33.3304 67.1416 32.0555 67.1416Z" fill="#087F5D"/>
<path d="M29.945 90.9953L40.9086 84.621C42.056 83.9553 42.4385 82.4821 41.7727 81.3489L37.679 74.3089C37.0133 73.1616 35.5401 72.7791 34.4069 73.4449L23.4432 79.8191C22.2959 80.4849 21.9134 81.958 22.5792 83.0912L26.6728 90.1312C27.3386 91.2644 28.7976 91.661 29.945 90.9953Z" fill="white"/>
<path d="M28.741 91.6328C27.8061 91.6328 26.8995 91.1512 26.3896 90.2871L22.2959 83.2471C21.9276 82.6239 21.8285 81.8873 22.0126 81.1932C22.1968 80.4991 22.6501 79.9042 23.2733 79.5501L34.237 73.1758C35.526 72.4251 37.1975 72.8642 37.9482 74.1532L42.0419 81.1932C42.4102 81.8165 42.5093 82.553 42.3252 83.2471C42.1411 83.9412 41.6878 84.5361 41.0645 84.8902L30.1008 91.2645C29.6759 91.5195 29.2084 91.6328 28.741 91.6328ZM35.611 73.4166C35.2569 73.4166 34.9028 73.5016 34.5628 73.6999L23.5991 80.0742C23.1175 80.3575 22.7775 80.8107 22.6359 81.3348C22.4942 81.8731 22.5651 82.4397 22.8484 82.9213L26.942 89.9613C27.2253 90.4429 27.6786 90.7829 28.2169 90.9245C28.7552 91.0662 29.3218 90.9953 29.8034 90.712L40.767 84.3378C41.2487 84.0545 41.5886 83.6012 41.7303 83.063C41.8719 82.5247 41.8011 81.9581 41.5178 81.4765L37.4241 74.4365C37.0275 73.7991 36.3334 73.4166 35.611 73.4166Z" fill="black"/>
<path d="M32.4098 83.063C32.3673 83.063 32.3106 83.0489 32.2681 83.0347C32.1123 82.9639 32.0556 82.7656 32.1265 82.6098L35.1294 76.6038C35.2003 76.448 35.3986 76.3913 35.5544 76.4622C35.7102 76.533 35.7669 76.7313 35.696 76.8871L32.6931 82.8931C32.6364 82.9922 32.5231 83.063 32.4098 83.063Z" fill="black"/>
<path d="M32.3814 83.0771H32.3672L25.6672 82.7088C25.4972 82.6947 25.3556 82.553 25.3698 82.383C25.3839 82.2131 25.5256 82.0714 25.6955 82.0856L32.3956 82.4539C32.5656 82.468 32.7072 82.6097 32.693 82.7797C32.6789 82.9496 32.5372 83.0771 32.3814 83.0771Z" fill="black"/>
<path d="M53.0229 49.2491C58.704 43.5681 58.704 34.3572 53.0229 28.6762C47.3418 22.9951 38.131 22.9951 32.4499 28.6762C26.7689 34.3572 26.7689 43.5681 32.4499 49.2491C38.131 54.9302 47.3418 54.9302 53.0229 49.2491Z" fill="#00B3F2"/>
<path d="M42.7643 53.8266C41.7161 53.8266 40.6538 53.7133 39.5914 53.4867C35.7102 52.6509 32.3956 50.342 30.2425 47.0133C28.0894 43.6703 27.367 39.7042 28.2169 35.8229C29.0526 31.9417 31.3615 28.6271 34.6903 26.4741C38.0191 24.321 41.9994 23.5986 45.8806 24.4485C49.7618 25.2842 53.0764 27.5931 55.2295 30.9219C59.6631 37.806 57.6659 47.0133 50.7817 51.4611C48.3453 53.0192 45.5832 53.8266 42.7643 53.8266ZM42.7077 24.7318C40.0022 24.7318 37.3533 25.5108 35.0303 26.9982C31.829 29.0521 29.6334 32.2392 28.826 35.9504C28.0186 39.6617 28.7127 43.472 30.7666 46.6592C32.8205 49.8604 36.0076 52.056 39.7189 52.8634C43.4301 53.6708 47.2405 52.9767 50.4276 50.9228C57.0285 46.6733 58.9266 37.8485 54.6912 31.2618C52.6373 28.0605 49.4502 25.865 45.739 25.0576C44.7333 24.8451 43.7134 24.7318 42.7077 24.7318Z" fill="black"/>
<path d="M44.5776 46.8822C45.0138 45.8521 44.5323 44.6635 43.5022 44.2273C42.4721 43.7911 41.2835 44.2726 40.8473 45.3027C40.4111 46.3328 40.8926 47.5214 41.9227 47.9576C42.9528 48.3938 44.1414 47.9123 44.5776 46.8822Z" fill="black"/>
<path d="M46.2914 43.5286C46.5464 43.5286 46.8013 43.4153 46.9855 43.2028C47.3113 42.8062 47.2546 42.2396 46.8722 41.9138C45.5973 40.8514 44.1666 40.299 42.7077 40.3273C41.2628 40.3415 39.8322 40.9364 38.5856 42.0271C38.2032 42.3671 38.1607 42.9479 38.5007 43.3303C38.8406 43.7128 39.4214 43.7553 39.8038 43.4153C40.7246 42.6079 41.7161 42.1829 42.736 42.1829C43.7559 42.1688 44.7616 42.5654 45.6965 43.3445C45.8806 43.4578 46.0931 43.5286 46.2914 43.5286Z" fill="black"/>
<path d="M37.0417 40.3273C37.2541 40.3273 37.4666 40.2565 37.6366 40.1007C39.2231 38.7267 40.9229 38.0184 42.6935 38.0043C44.4641 37.9759 46.1922 38.6417 47.807 39.9732C48.2037 40.299 48.7844 40.2423 49.0961 39.8457C49.4219 39.4491 49.3652 38.8683 48.9686 38.5567C47.0421 36.9702 44.8607 36.1345 42.6652 36.1628C40.4838 36.1911 38.3165 37.0694 36.4326 38.7125C36.0501 39.0383 36.0076 39.6191 36.3334 40.0157C36.5176 40.2282 36.7725 40.3415 37.0417 40.3273Z" fill="black"/>
<path d="M34.8603 37.041C35.0728 37.041 35.2852 36.9561 35.4552 36.8144C37.6933 34.8455 40.1013 33.8256 42.6227 33.7973C45.1441 33.7689 47.5804 34.718 49.861 36.6444C50.2435 36.9702 50.8242 36.9136 51.15 36.5311C51.4758 36.1487 51.4191 35.5679 51.0367 35.2421C49.7618 34.1797 48.4162 33.3582 47.028 32.8057C45.5832 32.2391 44.0959 31.9558 42.5944 31.97C41.0929 31.9842 39.6056 32.3099 38.1749 32.919C36.8009 33.4998 35.4694 34.3497 34.2229 35.4546C33.8404 35.7945 33.8121 36.3753 34.1379 36.7578C34.3504 36.9419 34.6053 37.041 34.8603 37.041Z" fill="black"/>
<path d="M42.7781 177.983C42.6364 177.983 42.4948 177.983 42.3531 177.983C42.1832 177.983 42.0415 177.841 42.0415 177.657C42.0415 177.487 42.1832 177.345 42.3531 177.345C43.5713 177.373 44.8179 177.288 46.0644 177.118C46.2343 177.09 46.3902 177.218 46.4185 177.388C46.4468 177.558 46.3193 177.713 46.1494 177.742C45.0162 177.898 43.883 177.983 42.7781 177.983ZM38.6136 177.572C38.5994 177.572 38.5711 177.572 38.5569 177.572C37.2679 177.317 36.0497 176.934 34.9024 176.424C34.7466 176.354 34.6757 176.169 34.7466 176.014C34.8174 175.858 35.0015 175.787 35.1573 175.858C36.248 176.339 37.4379 176.708 38.6844 176.963C38.8544 176.991 38.9677 177.161 38.9252 177.331C38.8969 177.473 38.7694 177.572 38.6136 177.572ZM49.7898 176.948C49.6481 176.948 49.5348 176.863 49.4923 176.722C49.4498 176.552 49.5348 176.382 49.7048 176.339C50.8946 175.999 52.0703 175.56 53.1893 175.05C53.3452 174.98 53.5293 175.05 53.6001 175.206C53.671 175.362 53.6001 175.546 53.4443 175.617C52.297 176.141 51.0929 176.58 49.8747 176.934C49.8464 176.948 49.8181 176.948 49.7898 176.948ZM31.8002 174.54C31.7294 174.54 31.6586 174.512 31.6019 174.47C30.5821 173.676 29.6755 172.77 28.9106 171.736C28.8114 171.594 28.8398 171.396 28.9672 171.297C29.1089 171.197 29.3072 171.226 29.4064 171.353C30.1429 172.331 31.007 173.209 31.9844 173.96C32.126 174.059 32.1402 174.257 32.041 174.399C31.9844 174.498 31.8994 174.54 31.8002 174.54ZM56.6314 173.846C56.5323 173.846 56.4331 173.79 56.3623 173.705C56.2631 173.563 56.3056 173.365 56.4615 173.266C57.5238 172.586 58.5154 171.835 59.4361 171.042C59.5636 170.928 59.7619 170.943 59.8752 171.07C59.9885 171.197 59.9744 171.396 59.8469 171.509C58.912 172.331 57.878 173.11 56.8014 173.79C56.7448 173.832 56.6881 173.846 56.6314 173.846ZM62.2691 168.917C62.1983 168.917 62.1133 168.889 62.0566 168.832C61.9291 168.719 61.915 168.52 62.0283 168.393C62.8499 167.472 63.6431 166.495 64.3938 165.503C64.493 165.362 64.6913 165.333 64.833 165.447C64.9746 165.546 65.0029 165.744 64.8896 165.886C64.1247 166.906 63.3173 167.883 62.4957 168.818C62.4532 168.874 62.3683 168.917 62.2691 168.917ZM27.2958 168.619C27.1683 168.619 27.055 168.549 27.0125 168.421C26.5309 167.288 26.1626 166.056 25.9218 164.767C25.8934 164.597 26.0068 164.427 26.1767 164.398C26.3467 164.37 26.5167 164.483 26.545 164.653C26.7858 165.9 27.14 167.09 27.6074 168.195C27.6782 168.35 27.5932 168.534 27.4374 168.605C27.3808 168.605 27.3383 168.619 27.2958 168.619ZM25.8226 161.282C25.6526 161.282 25.511 161.14 25.511 160.97C25.511 160.758 25.4968 160.56 25.4968 160.347C25.4968 159.256 25.5818 158.18 25.7376 157.16C25.766 156.99 25.9218 156.877 26.0918 156.905C26.2617 156.933 26.3751 157.089 26.3467 157.259C26.1909 158.251 26.1201 159.299 26.1201 160.347C26.1201 160.545 26.1201 160.744 26.1342 160.942C26.1484 161.14 26.0068 161.282 25.8226 161.282C25.8368 161.282 25.8368 161.282 25.8226 161.282ZM27.0125 153.902C26.97 153.902 26.9417 153.902 26.8992 153.888C26.7433 153.831 26.6584 153.647 26.715 153.477C27.1825 152.273 27.7774 151.126 28.4856 150.092C28.5848 149.95 28.7831 149.908 28.9247 150.007C29.0664 150.106 29.1089 150.304 29.0097 150.446C28.3157 151.452 27.7491 152.542 27.2958 153.704C27.2533 153.831 27.14 153.902 27.0125 153.902ZM31.2336 147.754C31.1487 147.754 31.0637 147.726 30.9928 147.655C30.8795 147.528 30.8937 147.33 31.0212 147.216C31.9561 146.366 33.0184 145.63 34.1516 145.006C34.3074 144.921 34.4916 144.978 34.5766 145.134C34.6616 145.29 34.6049 145.474 34.4491 145.559C33.3584 146.154 32.3527 146.876 31.4461 147.684C31.3895 147.726 31.3045 147.754 31.2336 147.754ZM55.6257 147.499C55.5549 147.499 55.4982 147.485 55.4416 147.443C54.4359 146.706 53.3735 146.055 52.2828 145.516C52.127 145.446 52.0703 145.247 52.1411 145.091C52.212 144.936 52.4103 144.879 52.5661 144.95C53.6993 145.516 54.79 146.182 55.824 146.933C55.9657 147.032 55.994 147.23 55.8949 147.372C55.824 147.443 55.7249 147.499 55.6257 147.499ZM48.9115 144.171C48.8832 144.171 48.8549 144.171 48.8265 144.157C47.6367 143.817 46.4185 143.576 45.1861 143.462C45.0162 143.448 44.8887 143.292 44.9028 143.123C44.917 142.953 45.0728 142.825 45.2428 142.839C46.5035 142.967 47.7642 143.208 48.9965 143.562C49.1665 143.604 49.2656 143.788 49.209 143.944C49.1807 144.086 49.0532 144.171 48.9115 144.171ZM37.7779 144.157C37.6362 144.157 37.5229 144.072 37.4804 143.93C37.4379 143.76 37.5229 143.59 37.6929 143.533C38.8969 143.179 40.1576 142.938 41.4466 142.825C41.6166 142.811 41.7724 142.938 41.7865 143.108C41.8007 143.278 41.6732 143.434 41.5032 143.448C40.2567 143.562 39.0385 143.788 37.877 144.142C37.8345 144.142 37.8062 144.157 37.7779 144.157Z" fill="black"/>
<path d="M70.1306 156.735C70.0881 156.735 70.0457 156.721 70.0032 156.707C69.8473 156.636 69.7765 156.452 69.8473 156.296C70.3431 155.177 70.8106 154.001 71.2213 152.826C71.278 152.656 71.4621 152.571 71.618 152.627C71.7879 152.684 71.8729 152.868 71.8163 153.024C71.3913 154.214 70.9239 155.404 70.4139 156.551C70.3573 156.664 70.244 156.735 70.1306 156.735ZM72.6237 149.638C72.5953 149.638 72.567 149.638 72.5387 149.624C72.3687 149.582 72.2696 149.412 72.312 149.242C72.6237 148.052 72.907 146.834 73.1336 145.587C73.1619 145.417 73.3319 145.304 73.5019 145.332C73.6719 145.361 73.7852 145.531 73.7569 145.701C73.5161 146.947 73.2469 148.194 72.9211 149.398C72.8786 149.553 72.7512 149.638 72.6237 149.638ZM74.0118 142.244C73.9977 142.244 73.9835 142.244 73.9694 142.244C73.7994 142.23 73.6719 142.074 73.7002 141.89C73.8419 140.672 73.9552 139.425 74.026 138.165C74.0402 137.995 74.1818 137.853 74.3518 137.867C74.5218 137.882 74.6634 138.023 74.6493 138.193C74.5784 139.468 74.4651 140.743 74.3235 141.961C74.2951 142.131 74.1677 142.244 74.0118 142.244ZM74.4226 134.737C74.2527 134.737 74.111 134.595 74.111 134.425C74.111 133.207 74.0827 131.946 74.0118 130.672C73.9977 130.502 74.1393 130.346 74.3093 130.346C74.4793 130.332 74.6351 130.473 74.6351 130.643C74.6918 131.918 74.7343 133.193 74.7343 134.425C74.7484 134.595 74.6068 134.737 74.4226 134.737ZM74.0543 127.215C73.8985 127.215 73.7569 127.088 73.7427 126.932C73.6294 125.714 73.4877 124.467 73.3178 123.207C73.2894 123.037 73.4169 122.881 73.5869 122.852C73.7569 122.824 73.9127 122.952 73.941 123.122C74.111 124.396 74.2526 125.657 74.366 126.875C74.3801 127.045 74.2526 127.201 74.0827 127.215C74.0827 127.215 74.0685 127.215 74.0543 127.215ZM73.077 119.75C72.9211 119.75 72.7937 119.637 72.7653 119.495C72.567 118.306 72.3404 117.059 72.0854 115.798C72.0571 115.628 72.1562 115.458 72.3262 115.43C72.4962 115.402 72.6662 115.501 72.6945 115.671C72.9495 116.932 73.1761 118.178 73.3744 119.382C73.4027 119.552 73.2894 119.708 73.1195 119.75C73.1053 119.75 73.0911 119.75 73.077 119.75ZM71.6038 112.37C71.4621 112.37 71.3347 112.271 71.2922 112.13C71.023 110.954 70.7397 109.722 70.4281 108.475C70.3856 108.305 70.4848 108.135 70.6547 108.093C70.8247 108.05 70.9947 108.149 71.0372 108.319C71.3488 109.58 71.6463 110.812 71.9013 111.988C71.9438 112.158 71.8304 112.328 71.6605 112.356C71.6605 112.37 71.6321 112.37 71.6038 112.37Z" fill="black"/>
<path d="M64.4363 92.582C64.323 92.582 64.2097 92.5111 64.153 92.3978C63.6431 91.3071 63.0765 90.1881 62.4532 89.0549C62.3682 88.8991 62.4249 88.7149 62.5807 88.6299C62.7365 88.5449 62.9207 88.6016 63.0057 88.7574C63.6289 89.9048 64.1955 91.038 64.7196 92.1287C64.7904 92.2845 64.7196 92.4686 64.5638 92.5395C64.5213 92.5678 64.4788 92.582 64.4363 92.582ZM60.8667 85.9527C60.7534 85.9527 60.6543 85.8961 60.5976 85.7969C59.9743 84.7487 59.2944 83.6722 58.6003 82.6098C58.5012 82.4682 58.5437 82.2698 58.6853 82.1707C58.827 82.0715 59.0253 82.114 59.1245 82.2557C59.8185 83.3322 60.4985 84.4088 61.1217 85.457C61.2067 85.5986 61.1642 85.7969 61.0084 85.8819C60.9801 85.9386 60.9234 85.9527 60.8667 85.9527ZM56.7589 79.6352C56.6597 79.6352 56.5606 79.5927 56.5039 79.5077C55.7957 78.502 55.0591 77.4821 54.3084 76.4622C54.2092 76.3206 54.2375 76.1223 54.3792 76.0231C54.5208 75.9239 54.7191 75.9523 54.8183 76.0939C55.5832 77.1138 56.3198 78.1478 57.028 79.1536C57.1272 79.2952 57.0989 79.4935 56.9572 79.5927C56.8864 79.621 56.8156 79.6352 56.7589 79.6352ZM52.2544 73.6009C52.1553 73.6009 52.0703 73.5584 52.0136 73.4876C51.2487 72.5102 50.4413 71.5328 49.6481 70.5696C49.5348 70.4421 49.5489 70.2438 49.6906 70.1305C49.8181 70.0171 50.0164 70.0313 50.1297 70.173C50.9371 71.1362 51.7445 72.1277 52.5094 73.1051C52.6227 73.2468 52.5944 73.4451 52.4527 73.5442C52.3961 73.5726 52.3253 73.6009 52.2544 73.6009ZM47.4242 67.8216C47.3392 67.8216 47.2542 67.7791 47.1834 67.7224C46.3476 66.7734 45.4978 65.8527 44.6479 64.9461C44.5345 64.8186 44.5345 64.6203 44.662 64.507C44.7895 64.3937 44.9878 64.3937 45.1011 64.5211C45.951 65.4277 46.8009 66.3626 47.6508 67.3116C47.7641 67.4391 47.75 67.6374 47.6225 67.7508C47.5658 67.7933 47.495 67.8216 47.4242 67.8216ZM42.2681 62.3397C42.1831 62.3397 42.1123 62.3114 42.0415 62.2547C41.1349 61.3482 40.2284 60.47 39.336 59.6484C39.2085 59.5351 39.2085 59.3368 39.3218 59.2093C39.4351 59.0818 39.6335 59.0818 39.7609 59.1951C40.6533 60.0167 41.5599 60.9091 42.4806 61.8156C42.6081 61.9431 42.6081 62.1414 42.4806 62.2547C42.4239 62.3114 42.339 62.3397 42.2681 62.3397Z" fill="black"/>
<path d="M43.7697 147.74H41.5458L41.0075 150.12C40.4976 150.219 39.9876 150.347 39.506 150.517L37.8629 148.732L35.9364 149.851L36.6589 152.174C36.2622 152.514 35.894 152.882 35.5682 153.265L33.2451 152.542L32.1261 154.469L33.9109 156.112C33.7409 156.593 33.5992 157.103 33.5142 157.613L31.1345 158.151V160.375L33.5142 160.914C33.6134 161.424 33.7409 161.934 33.9109 162.415L32.1261 164.058L33.2451 165.985L35.5682 165.262C35.9081 165.659 36.2764 166.027 36.6589 166.353L35.9364 168.676L37.8629 169.795L39.506 168.01C39.9876 168.18 40.4976 168.322 41.0075 168.407L41.5458 170.787H43.7697L44.3079 168.407C44.8179 168.308 45.3278 168.18 45.8094 168.01L47.4526 169.795L49.379 168.676L48.6566 166.353C49.0532 166.013 49.4215 165.645 49.7473 165.262L52.0704 165.985L53.1894 164.058L51.4046 162.415C51.5746 161.934 51.7162 161.424 51.8012 160.914L54.1809 160.375V158.151L51.8012 157.613C51.7021 157.103 51.5746 156.593 51.4046 156.112L53.1894 154.469L52.0704 152.542L49.7473 153.265C49.4073 152.868 49.039 152.5 48.6566 152.174L49.379 149.851L47.4526 148.732L45.8094 150.517C45.3278 150.347 44.8179 150.205 44.3079 150.12L43.7697 147.74ZM48.3875 159.285C48.3875 162.458 45.8236 165.021 42.6506 165.021C39.4777 165.021 36.9138 162.458 36.9138 159.285C36.9138 156.112 39.4777 153.548 42.6506 153.548C45.8236 153.534 48.3875 156.112 48.3875 159.285Z" fill="white"/>
<path d="M43.7697 171.127H41.5458C41.4041 171.127 41.2766 171.027 41.2341 170.886L40.7384 168.704C40.3417 168.619 39.9593 168.52 39.591 168.393L38.0753 170.036C37.9762 170.149 37.8204 170.163 37.6929 170.093L35.7665 168.974C35.639 168.903 35.5823 168.747 35.6248 168.605L36.2906 166.48C35.9931 166.211 35.7098 165.942 35.4548 165.645L33.3301 166.311C33.1884 166.353 33.0326 166.296 32.9618 166.169L31.8428 164.242C31.7719 164.115 31.8003 163.959 31.8994 163.86L33.5426 162.344C33.4151 161.976 33.3159 161.594 33.2309 161.197L31.0495 160.701C30.9079 160.673 30.8087 160.545 30.8087 160.39V158.166C30.8087 158.024 30.9079 157.897 31.0495 157.854L33.2309 157.358C33.3159 156.962 33.4151 156.579 33.5426 156.211L31.8994 154.695C31.7861 154.596 31.7719 154.44 31.8428 154.313L32.9618 152.386C33.0326 152.259 33.1884 152.202 33.3301 152.245L35.4548 152.91C35.7098 152.613 35.9931 152.33 36.2906 152.075L35.6248 149.95C35.5823 149.808 35.639 149.652 35.7665 149.582L37.6929 148.463C37.8204 148.392 37.9762 148.42 38.0753 148.519L39.591 150.162C39.9593 150.035 40.3417 149.936 40.7384 149.851L41.2341 147.669C41.2625 147.528 41.3899 147.429 41.5458 147.429H43.7697C43.9113 147.429 44.0388 147.528 44.0813 147.669L44.5771 149.851C44.9737 149.936 45.3561 150.035 45.7244 150.162L47.2401 148.519C47.3392 148.406 47.4951 148.392 47.6225 148.463L49.549 149.582C49.6765 149.652 49.7331 149.808 49.6906 149.95L49.0249 152.075C49.3223 152.33 49.6056 152.613 49.8606 152.91L51.9853 152.245C52.127 152.202 52.2828 152.259 52.3536 152.386L53.4727 154.313C53.5435 154.44 53.5152 154.596 53.416 154.695L51.7729 156.211C51.9004 156.579 51.9995 156.962 52.0845 157.358L54.2659 157.854C54.4076 157.882 54.5067 158.01 54.5067 158.166V160.39C54.5067 160.531 54.4076 160.659 54.2659 160.701L52.0845 161.197C51.9995 161.594 51.9004 161.976 51.7729 162.344L53.416 163.86C53.5293 163.959 53.5435 164.115 53.4727 164.242L52.3536 166.169C52.2828 166.296 52.127 166.353 51.9853 166.311L49.8606 165.645C49.5915 165.942 49.3223 166.226 49.0249 166.48L49.6906 168.605C49.7331 168.747 49.6765 168.903 49.549 168.974L47.6225 170.093C47.4951 170.163 47.3392 170.135 47.2401 170.036L45.7244 168.393C45.3561 168.52 44.9737 168.619 44.5771 168.704L44.0813 170.886C44.0388 171.027 43.9113 171.127 43.7697 171.127ZM41.7866 170.503H43.5147L43.9963 168.379C44.0246 168.251 44.1238 168.166 44.2513 168.138C44.747 168.053 45.2428 167.925 45.6961 167.755C45.8094 167.713 45.9511 167.741 46.0361 167.84L47.5092 169.441L49.0107 168.577L48.3591 166.495C48.3166 166.381 48.3591 166.24 48.4583 166.169C48.8407 165.843 49.1949 165.489 49.5206 165.106C49.6056 165.007 49.7331 164.979 49.8464 165.007L51.9287 165.659L52.7928 164.157L51.1921 162.684C51.093 162.599 51.0646 162.472 51.1071 162.344C51.2771 161.877 51.4046 161.395 51.4896 160.899C51.5179 160.772 51.6029 160.673 51.7304 160.645L53.8551 160.163V158.435L51.7304 157.953C51.6029 157.925 51.5179 157.826 51.4896 157.698C51.4046 157.202 51.2771 156.707 51.1071 156.253C51.0646 156.14 51.093 155.998 51.1921 155.913L52.7928 154.44L51.9287 152.939L49.8464 153.59C49.7331 153.633 49.5915 153.59 49.5206 153.491C49.1949 153.109 48.8407 152.755 48.4583 152.429C48.3591 152.344 48.3308 152.216 48.3591 152.103L49.0107 150.021L47.5092 149.157L46.0361 150.757C45.9511 150.857 45.8236 150.885 45.6961 150.842C45.2287 150.672 44.747 150.545 44.2513 150.46C44.1238 150.432 44.0246 150.347 43.9963 150.219L43.5147 148.094H41.7866L41.305 150.219C41.2766 150.347 41.1775 150.432 41.05 150.46C40.5542 150.545 40.0584 150.672 39.6052 150.842C39.4918 150.885 39.3502 150.857 39.2652 150.757L37.792 149.157L36.2906 150.021L36.9421 152.103C36.9846 152.216 36.9421 152.358 36.843 152.429C36.4605 152.755 36.1064 153.109 35.7806 153.491C35.6956 153.59 35.5681 153.619 35.4548 153.59L33.3726 152.939L32.5085 154.44L34.1092 155.913C34.2083 155.998 34.2366 156.126 34.1941 156.253C34.0242 156.721 33.8967 157.202 33.8117 157.698C33.7834 157.826 33.6984 157.925 33.5709 157.953L31.4461 158.435V160.163L33.5709 160.645C33.6984 160.673 33.7834 160.772 33.8117 160.899C33.8967 161.395 34.0242 161.891 34.1941 162.344C34.2366 162.458 34.2083 162.599 34.1092 162.684L32.5085 164.157L33.3726 165.659L35.4548 165.007C35.5681 164.965 35.7098 165.007 35.7806 165.106C36.1064 165.489 36.4605 165.843 36.843 166.169C36.9421 166.254 36.9705 166.381 36.9421 166.495L36.2906 168.577L37.792 169.441L39.2652 167.84C39.3502 167.741 39.4777 167.713 39.6052 167.755C40.0726 167.925 40.5542 168.053 41.05 168.138C41.1775 168.166 41.2766 168.251 41.305 168.379L41.7866 170.503ZM42.6506 165.333C39.3077 165.333 36.6022 162.613 36.6022 159.285C36.6022 155.956 39.3219 153.236 42.6506 153.236C45.9936 153.236 48.6991 155.956 48.6991 159.285C48.6991 162.613 45.9794 165.333 42.6506 165.333ZM42.6506 153.859C39.6618 153.859 37.2254 156.296 37.2254 159.285C37.2254 162.273 39.6618 164.71 42.6506 164.71C45.6394 164.71 48.0758 162.273 48.0758 159.285C48.0758 156.282 45.6394 153.859 42.6506 153.859Z" fill="black"/>
<path d="M31.7011 107.469H27.8907L26.97 111.535C26.0918 111.69 25.2277 111.917 24.4061 112.215L21.5873 109.155L18.2869 111.067L19.5192 115.047C18.8393 115.614 18.216 116.252 17.6353 116.931L13.6549 115.699L11.7426 119L14.8023 121.818C14.5048 122.64 14.2782 123.504 14.1224 124.382L10.057 125.303V129.113L14.1224 130.034C14.2782 130.912 14.5048 131.776 14.8023 132.598L11.7426 135.417L13.6549 138.717L17.6353 137.485C18.2019 138.165 18.8393 138.788 19.5192 139.369L18.2869 143.349L21.5873 145.261L24.4061 142.202C25.2277 142.499 26.0918 142.726 26.97 142.882L27.8907 146.947H31.7011L32.6218 142.882C33.5 142.726 34.3641 142.499 35.1857 142.202L38.0045 145.261L41.3049 143.349L40.0726 139.369C40.7525 138.802 41.3758 138.165 41.9565 137.485L45.9369 138.717L47.8492 135.417L44.7895 132.598C45.087 131.776 45.3136 130.912 45.4694 130.034L49.5348 129.113V125.303L45.4694 124.382C45.3136 123.504 45.087 122.64 44.7895 121.818L47.8492 119L45.9369 115.699L41.9565 116.931C41.3899 116.252 40.7525 115.628 40.0726 115.047L41.3049 111.067L38.0045 109.155L35.1857 112.229C34.3641 111.931 33.5 111.705 32.6218 111.549L31.7011 107.469ZM39.6051 127.215C39.6051 132.64 35.214 137.032 29.7888 137.032C24.3636 137.032 19.9725 132.64 19.9725 127.215C19.9725 121.79 24.3636 117.399 29.7888 117.399C35.214 117.385 39.6051 121.79 39.6051 127.215Z" fill="#91B3FA"/>
<path d="M31.7012 147.259H27.8908C27.7492 147.259 27.6217 147.159 27.5792 147.018L26.701 143.151C25.9361 143.009 25.1995 142.811 24.4771 142.556L21.7999 145.46C21.7007 145.573 21.5449 145.587 21.4174 145.516L18.117 143.604C17.9895 143.533 17.9328 143.377 17.9753 143.236L19.151 139.454C18.5703 138.958 18.032 138.406 17.5362 137.839L13.74 139.029C13.5984 139.071 13.4425 139.015 13.3717 138.887L11.4736 135.587C11.4028 135.459 11.4311 135.303 11.5303 135.204L14.4341 132.527C14.1933 131.819 13.995 131.068 13.8392 130.303L9.97213 129.425C9.83048 129.397 9.73132 129.269 9.73132 129.113V125.303C9.73132 125.161 9.83048 125.034 9.97213 124.991L13.8392 124.113C13.9808 123.348 14.1791 122.612 14.4341 121.889L11.5303 119.212C11.417 119.113 11.4028 118.957 11.4736 118.83L13.3859 115.529C13.4567 115.402 13.6125 115.345 13.7542 115.387L17.5362 116.563C18.032 115.982 18.5844 115.444 19.151 114.948L17.9753 111.166C17.9328 111.025 17.9895 110.869 18.117 110.798L21.4174 108.886C21.5449 108.815 21.7007 108.843 21.7999 108.942L24.4771 111.846C25.1853 111.605 25.9361 111.407 26.701 111.251L27.5792 107.384C27.6075 107.243 27.735 107.143 27.8908 107.143H31.7012C31.8428 107.143 31.9703 107.243 32.0128 107.384L32.8769 111.251C33.6418 111.393 34.3784 111.591 35.1008 111.846L37.778 108.942C37.8771 108.829 38.0329 108.815 38.1604 108.886L41.4609 110.798C41.5883 110.869 41.645 111.025 41.6025 111.166L40.4268 114.948C41.0076 115.444 41.5458 115.997 42.0416 116.563L45.8237 115.387C45.9653 115.345 46.1211 115.402 46.192 115.529L48.1042 118.83C48.1751 118.957 48.1467 119.113 48.0476 119.212L45.1438 121.889C45.3846 122.597 45.5829 123.348 45.7387 124.113L49.6057 124.991C49.7474 125.02 49.8465 125.147 49.8465 125.303V129.113C49.8465 129.255 49.7474 129.382 49.6057 129.425L45.7387 130.303C45.597 131.068 45.3987 131.805 45.1438 132.527L48.0476 135.204C48.1609 135.303 48.1751 135.459 48.1042 135.587L46.192 138.887C46.1211 139.015 45.9653 139.071 45.8237 139.029L42.0416 137.853C41.5458 138.434 40.9934 138.972 40.4268 139.468L41.6025 143.25C41.645 143.392 41.5883 143.547 41.4609 143.618L38.1604 145.531C38.0329 145.601 37.8771 145.573 37.778 145.474L35.1008 142.57C34.3925 142.811 33.6418 143.009 32.8769 143.165L32.0128 147.032C31.9703 147.159 31.8428 147.259 31.7012 147.259ZM28.1316 146.635H31.4462L32.3103 142.811C32.3386 142.683 32.4378 142.598 32.5653 142.57C33.4293 142.414 34.2792 142.188 35.0866 141.904C35.1999 141.862 35.3416 141.89 35.4266 141.989L38.0754 144.865L40.9509 143.207L39.7894 139.468C39.7469 139.355 39.7894 139.213 39.8885 139.142C40.5543 138.59 41.1634 137.966 41.73 137.301C41.815 137.202 41.9425 137.173 42.0558 137.202L45.7953 138.363L47.4526 135.488L44.5772 132.839C44.478 132.754 44.4497 132.626 44.4922 132.499C44.7755 131.691 45.0021 130.841 45.1579 129.977C45.1862 129.85 45.2712 129.751 45.3987 129.722L49.2233 128.858V125.544L45.3987 124.68C45.2712 124.651 45.1862 124.552 45.1579 124.425C45.0021 123.561 44.7755 122.711 44.4922 121.903C44.4497 121.79 44.478 121.648 44.5772 121.563L47.4526 118.915L45.7953 116.039L42.0558 117.201C41.9425 117.243 41.8008 117.201 41.73 117.101C41.1776 116.436 40.5543 115.827 39.8885 115.26C39.7894 115.175 39.7611 115.047 39.7894 114.934L40.9509 111.195L38.0754 109.537L35.4124 112.441C35.3274 112.54 35.1999 112.569 35.0725 112.526C34.2651 112.243 33.4152 112.016 32.5511 111.86C32.4236 111.832 32.3245 111.747 32.2961 111.62L31.4321 107.795H28.1175L27.2534 111.62C27.2251 111.747 27.1259 111.832 26.9984 111.86C26.1344 112.016 25.2845 112.243 24.4771 112.526C24.3637 112.569 24.2221 112.54 24.1371 112.441L21.4883 109.566L18.6128 111.223L19.7743 114.962C19.8168 115.076 19.7743 115.217 19.6751 115.288C19.0094 115.855 18.4003 116.464 17.8337 117.13C17.7487 117.229 17.6212 117.257 17.5079 117.229L13.7683 116.067L12.111 118.943L14.9865 121.592C15.0857 121.677 15.114 121.804 15.0715 121.932C14.7882 122.739 14.5616 123.589 14.4058 124.453C14.3774 124.581 14.2924 124.68 14.165 124.708L10.3404 125.572V128.887L14.165 129.751C14.2924 129.779 14.3774 129.878 14.4058 130.006C14.5616 130.87 14.7882 131.72 15.0715 132.527C15.114 132.64 15.0857 132.782 14.9865 132.867L12.111 135.516L13.7683 138.391L17.5079 137.23C17.6212 137.187 17.7629 137.23 17.8337 137.329C18.4003 137.995 19.0094 138.604 19.6751 139.17C19.7743 139.255 19.8026 139.383 19.7743 139.496L18.6128 143.236L21.4883 144.893L24.1371 142.018C24.2221 141.918 24.3496 141.89 24.4771 141.933C25.2845 142.216 26.1344 142.443 26.9984 142.598C27.1259 142.627 27.2251 142.712 27.2534 142.839L28.1316 146.635ZM29.7889 137.343C24.1938 137.343 19.6468 132.796 19.6468 127.201C19.6468 124.496 20.695 121.946 22.6214 120.034C24.5337 118.121 27.0834 117.059 29.7889 117.059C35.3841 117.059 39.931 121.606 39.931 127.201C39.931 132.796 35.3699 137.343 29.7889 137.343ZM29.7889 117.711C27.2534 117.711 24.8595 118.702 23.0606 120.501C21.2616 122.3 20.2701 124.68 20.2701 127.229C20.2701 132.47 24.5337 136.734 29.7748 136.734C35.0158 136.734 39.2795 132.47 39.2795 127.229C39.2936 121.974 35.03 117.711 29.7889 117.711Z" fill="#91B3FA"/>
<path d="M84.9758 97.3271H135.304C136.82 97.3271 137.698 96.0948 137.259 94.5791L127.57 61.3198C127.131 59.8041 125.53 58.5718 124.014 58.5718H73.6863C72.1707 58.5718 71.2924 59.8041 71.7316 61.3198L81.4204 94.5791C81.8595 96.0948 83.4602 97.3271 84.9758 97.3271Z" fill="white"/>
<path d="M135.304 97.6529H84.9757C83.3326 97.6529 81.5903 96.3214 81.1228 94.6783L71.434 61.4189C71.179 60.569 71.2924 59.7616 71.7456 59.1525C72.1847 58.5718 72.8647 58.2601 73.6862 58.2601H124.014C125.658 58.2601 127.4 59.5916 127.867 61.2348L137.556 94.4941C137.811 95.344 137.698 96.1514 137.244 96.7605C136.805 97.3271 136.125 97.6529 135.304 97.6529ZM73.6862 58.8692C73.0771 58.8692 72.5672 59.0959 72.2556 59.5066C71.9298 59.9458 71.8448 60.5549 72.0431 61.2206L81.7319 94.48C82.1427 95.8681 83.6017 97.0155 84.9899 97.0155H135.318C135.927 97.0155 136.437 96.7889 136.749 96.3781C137.074 95.939 137.159 95.3299 136.961 94.6641L127.272 61.4048C126.862 60.0166 125.403 58.8692 124.014 58.8692H73.6862Z" fill="black"/>
<path d="M87.4405 67.8356H84.6641C84.0409 67.8356 83.4035 67.354 83.2335 66.7307L82.4261 63.9544C82.3269 63.6145 82.3836 63.2887 82.5677 63.0479C82.7377 62.807 83.0352 62.6796 83.361 62.6796H86.1231C86.7464 62.6796 87.3838 63.1612 87.5538 63.7844L88.3612 66.5608C88.4604 66.9007 88.4037 67.2265 88.2196 67.4673C88.0496 67.694 87.7663 67.8356 87.4405 67.8356ZM83.3468 63.3028C83.2618 63.3028 83.1343 63.317 83.0635 63.4161C82.9927 63.5011 82.9927 63.6286 83.0352 63.7703L83.8426 66.5466C83.9417 66.9007 84.3242 67.1982 84.6783 67.1982H87.4547C87.5396 67.1982 87.6671 67.184 87.738 67.0849C87.8088 66.9999 87.8088 66.8724 87.7663 66.7307L86.9589 63.9544C86.8597 63.6003 86.4773 63.3028 86.1231 63.3028H83.3468Z" fill="black"/>
<path d="M81.647 67.8356H78.8707C78.2474 67.8356 77.61 67.354 77.44 66.7307L76.6326 63.9544C76.5335 63.6145 76.5901 63.2887 76.7743 63.0479C76.9443 62.807 77.2417 62.6796 77.5675 62.6796H80.3439C80.9671 62.6796 81.6045 63.1612 81.7745 63.7844L82.5819 66.5608C82.6811 66.9007 82.6244 67.2265 82.4403 67.4673C82.2561 67.694 81.9728 67.8356 81.647 67.8356ZM77.5534 63.3028C77.4684 63.3028 77.3409 63.317 77.2701 63.4161C77.1992 63.5011 77.1992 63.6286 77.2417 63.7703L78.0491 66.5466C78.1483 66.9007 78.5307 67.1982 78.8849 67.1982H81.6612C81.7462 67.1982 81.8737 67.184 81.9445 67.0849C82.0153 66.9999 82.0153 66.8724 81.9728 66.7307L81.1654 63.9544C81.0663 63.6003 80.6838 63.3028 80.3297 63.3028H77.5534Z" fill="black"/>
<path d="M89.2819 74.1816H86.5056C85.8823 74.1816 85.2449 73.7 85.0749 73.0767L84.2675 70.3004C84.1684 69.9604 84.225 69.6346 84.4092 69.3938C84.5791 69.153 84.8766 69.0255 85.2024 69.0255H87.9646C88.5878 69.0255 89.2253 69.5071 89.3952 70.1304L90.2026 72.9067C90.3018 73.2467 90.2451 73.5725 90.061 73.8133C89.891 74.0399 89.6077 74.1816 89.2819 74.1816ZM85.1882 69.6488C85.1033 69.6488 84.9758 69.6629 84.9049 69.7621C84.8341 69.8471 84.8341 69.9746 84.8766 70.1162L85.684 72.8925C85.7832 73.2467 86.1656 73.5441 86.5197 73.5441H89.2961C89.3811 73.5441 89.5086 73.53 89.5794 73.4308C89.6502 73.3458 89.6502 73.2183 89.6077 73.0767L88.8003 70.3004C88.7012 69.9462 88.3187 69.6488 87.9646 69.6488H85.1882Z" fill="black"/>
<path d="M83.4885 74.1816H80.7121C80.0889 74.1816 79.4514 73.7 79.2815 73.0767L78.4741 70.3004C78.3749 69.9604 78.4316 69.6346 78.6157 69.3938C78.7857 69.153 79.0832 69.0255 79.4089 69.0255H82.1853C82.8085 69.0255 83.446 69.5071 83.6159 70.1304L84.4233 72.9067C84.5225 73.2467 84.4658 73.5725 84.2817 73.8133C84.0976 74.0399 83.8143 74.1816 83.4885 74.1816ZM79.3948 69.6488C79.3098 69.6488 79.1823 69.6629 79.1115 69.7621C79.0407 69.8471 79.0407 69.9746 79.0832 70.1162L79.8906 72.8925C79.9897 73.2467 80.3722 73.5441 80.7263 73.5441H83.5026C83.5876 73.5441 83.7151 73.53 83.7859 73.4308C83.8567 73.3458 83.8568 73.2183 83.8143 73.0767L83.0069 70.3004C82.9077 69.9462 82.5252 69.6488 82.1711 69.6488H79.3948Z" fill="black"/>
<path d="M87.0438 75.683H89.8202C90.3018 75.683 90.8117 76.0796 90.9534 76.5612L91.7608 79.3375C91.9024 79.8192 91.6191 80.2158 91.1375 80.2158H88.3612C87.8796 80.2158 87.3696 79.8192 87.228 79.3375L86.4206 76.5612C86.2789 76.0654 86.5481 75.683 87.0438 75.683Z" fill="white"/>
<path d="M81.2504 75.683H84.0267C84.5083 75.683 85.0183 76.0796 85.1599 76.5612L85.9673 79.3375C86.109 79.8192 85.8257 80.2158 85.344 80.2158H82.5677C82.0861 80.2158 81.5762 79.8192 81.4345 79.3375L80.6271 76.5612C80.4855 76.0654 80.7546 75.683 81.2504 75.683Z" fill="white"/>
<path d="M88.8854 82.0289H91.6617C92.1433 82.0289 92.6533 82.4256 92.7949 82.9072L93.6023 85.6835C93.744 86.1651 93.4607 86.5617 92.9791 86.5617H90.2027C89.7211 86.5617 89.2112 86.1651 89.0695 85.6835L88.2621 82.9072C88.1205 82.4114 88.4038 82.0289 88.8854 82.0289Z" fill="white"/>
<path d="M83.0919 82.0289H85.8683C86.3499 82.0289 86.8598 82.4256 87.0015 82.9072L87.8089 85.6835C87.9505 86.1651 87.6672 86.5617 87.1856 86.5617H84.4093C83.9277 86.5617 83.4177 86.1651 83.2761 85.6835L82.4687 82.9072C82.327 82.4114 82.6103 82.0289 83.0919 82.0289Z" fill="white"/>
<path d="M90.741 88.3749H93.5173C93.9989 88.3749 94.5089 88.7715 94.6505 89.2531L95.4579 92.0294C95.5996 92.5111 95.3163 92.9077 94.8346 92.9077H92.0583C91.5767 92.9077 91.0668 92.5111 90.9251 92.0294L90.1177 89.2531C89.9761 88.7573 90.2452 88.3749 90.741 88.3749Z" fill="white"/>
<path d="M84.9474 88.3749H87.7237C88.2053 88.3749 88.7153 88.7715 88.8569 89.2531L89.6643 92.0294C89.806 92.5111 89.5227 92.9077 89.0411 92.9077H86.2647C85.7831 92.9077 85.2732 92.5111 85.1315 92.0294L84.3241 89.2531C84.1825 88.7573 84.4516 88.3749 84.9474 88.3749Z" fill="white"/>
<path d="M131.777 93.2192H99.1125C98.9708 93.2192 98.8433 93.1343 98.815 92.9926L90.1035 63.0762C90.0752 62.977 90.0894 62.8779 90.1602 62.807C90.2168 62.7221 90.316 62.6796 90.4152 62.6796H123.065C123.207 62.6796 123.335 62.7787 123.363 62.9062L132.074 92.8226C132.103 92.9218 132.089 93.0209 132.018 93.0918C131.961 93.1626 131.876 93.2192 131.777 93.2192ZM99.3533 92.5818H131.352L122.825 63.2887H90.8259L99.3533 92.5818Z" fill="black"/>
<path d="M126.012 85.2443C125.941 85.2443 125.87 85.216 125.814 85.1735L118.575 79.5642C118.023 79.1251 117.343 78.9409 116.72 79.0259C116.224 79.0967 115.799 79.3517 115.53 79.7341L113.674 82.3405C113.433 82.6805 113.051 82.9071 112.612 82.9779C112.102 83.0487 111.549 82.8929 111.11 82.553L102.81 76.1079C102.257 75.6688 101.577 75.4847 100.954 75.5696C100.458 75.6405 100.033 75.8954 99.7641 76.2779L99.2683 76.972C99.1692 77.1136 98.9709 77.1419 98.8292 77.0428C98.6876 76.9436 98.6593 76.7453 98.7584 76.6037L99.2542 75.9096C99.6225 75.3855 100.203 75.0455 100.869 74.9464C101.662 74.8331 102.512 75.0739 103.206 75.6121L111.507 82.0572C111.819 82.298 112.187 82.4113 112.527 82.3547C112.711 82.3263 112.98 82.2413 113.164 81.9722L115.02 79.3659C115.388 78.8417 115.969 78.5018 116.635 78.4026C117.428 78.2893 118.278 78.5301 118.972 79.0684L126.21 84.6777C126.352 84.791 126.366 84.9752 126.267 85.1168C126.21 85.2018 126.111 85.2443 126.012 85.2443Z" fill="black"/>
<path d="M116.833 75.1164C114.68 75.1164 112.399 73.3599 111.776 71.2068C111.45 70.102 111.592 69.0538 112.187 68.2747C112.739 67.5381 113.632 67.1273 114.694 67.1273C116.861 67.1273 119.128 68.8838 119.751 71.0369C120.077 72.1417 119.935 73.1899 119.34 73.969C118.788 74.7056 117.895 75.1164 116.833 75.1164ZM114.694 67.7506C113.844 67.7506 113.136 68.0764 112.697 68.6571C112.229 69.2804 112.116 70.1161 112.385 71.0369C112.938 72.9491 114.935 74.4931 116.833 74.4931C117.683 74.4931 118.391 74.1673 118.83 73.5865C119.298 72.9633 119.411 72.1276 119.142 71.2068C118.589 69.2946 116.592 67.7506 114.694 67.7506Z" fill="black"/>
<path d="M65.1873 72.1843H104.438C105.897 72.1843 107.413 73.36 107.838 74.819L115.53 101.208C115.955 102.667 115.119 103.843 113.66 103.843H74.4087C72.9497 103.843 71.434 102.667 71.0091 101.208L63.3175 74.819C62.8925 73.36 63.7283 72.1843 65.1873 72.1843Z" fill="white"/>
<path d="M113.646 104.155H74.4086C72.8221 104.155 71.1648 102.88 70.7115 101.293L63.0199 74.904C62.7791 74.0824 62.8925 73.3175 63.3316 72.7367C63.7424 72.1843 64.4081 71.8727 65.1872 71.8727H104.438C106.025 71.8727 107.682 73.1475 108.135 74.734L115.827 101.123C116.068 101.945 115.954 102.71 115.515 103.291C115.09 103.857 114.439 104.155 113.646 104.155ZM65.1872 72.4959C64.6064 72.4959 64.1248 72.7084 63.8273 73.105C63.5157 73.53 63.4449 74.0966 63.6149 74.734L71.3065 101.123C71.6889 102.455 73.0771 103.531 74.4086 103.531H113.66C114.24 103.531 114.722 103.319 115.02 102.922C115.331 102.497 115.402 101.931 115.232 101.293L107.54 74.904C107.158 73.5725 105.77 72.4959 104.438 72.4959H65.1872Z" fill="black"/>
<path d="M108.121 102.285C107.98 102.285 107.866 102.2 107.824 102.058L99.6931 74.1391C99.6506 73.9692 99.7356 73.7992 99.9056 73.7567C100.076 73.7142 100.246 73.7992 100.288 73.9692L108.419 101.888C108.461 102.058 108.376 102.228 108.206 102.271C108.178 102.285 108.15 102.285 108.121 102.285Z" fill="black"/>
<path d="M75.0318 99.1969H104.226C104.693 99.1969 104.962 98.8145 104.835 98.347L98.8148 77.6662C98.6732 77.1987 98.1916 76.8163 97.71 76.8163H68.5018C68.0343 76.8163 67.7652 77.1987 67.8927 77.6662L73.9128 98.347C74.0686 98.8287 74.5502 99.1969 75.0318 99.1969Z" fill="black"/>
<path d="M108.546 90.4004C107.243 90.4004 105.94 89.3947 105.557 88.0915C105.359 87.4258 105.458 86.7884 105.812 86.3209C106.152 85.8676 106.691 85.6127 107.328 85.6127C108.631 85.6127 109.934 86.6184 110.317 87.9216C110.515 88.5873 110.416 89.2247 110.062 89.6922C109.736 90.1596 109.184 90.4004 108.546 90.4004ZM106.166 87.9216C106.464 88.9414 107.54 89.7772 108.546 89.7772C108.985 89.7772 109.354 89.6214 109.566 89.3239C109.807 89.0123 109.849 88.5732 109.722 88.1057C109.424 87.0858 108.348 86.2501 107.342 86.2501C106.903 86.2501 106.535 86.4059 106.322 86.7034C106.081 87.015 106.025 87.4541 106.166 87.9216Z" fill="black"/>
<path d="M106.691 79.1252C106.549 79.1252 106.436 79.0402 106.393 78.8985L105.827 76.9296C105.742 76.6321 105.402 76.3772 105.118 76.3772H103.588C103.419 76.3772 103.277 76.2355 103.277 76.0655C103.277 75.8956 103.419 75.7539 103.588 75.7539H105.104C105.671 75.7539 106.252 76.193 106.421 76.7596L106.988 78.7286C107.031 78.8985 106.946 79.0685 106.776 79.111C106.747 79.111 106.719 79.1252 106.691 79.1252Z" fill="black"/>
<path d="M107.385 84.1821H105.855C105.288 84.1821 104.707 83.743 104.537 83.1764L103.291 78.8985C103.248 78.7286 103.333 78.5586 103.503 78.5161C103.673 78.4736 103.843 78.5586 103.886 78.7286L105.132 83.0064C105.217 83.3038 105.557 83.5588 105.841 83.5588H107.37C107.441 83.5588 107.54 83.5446 107.597 83.4597C107.654 83.3888 107.654 83.2897 107.625 83.1764C107.583 83.0064 107.668 82.8364 107.838 82.7939C108.008 82.7514 108.178 82.8364 108.22 83.0064C108.305 83.318 108.263 83.6155 108.093 83.8421C107.951 84.0546 107.682 84.1821 107.385 84.1821Z" fill="black"/>
<path d="M105.897 79.1252H104.368C104.198 79.1252 104.056 78.9836 104.056 78.8136C104.056 78.6436 104.198 78.502 104.368 78.502H105.897C106.067 78.502 106.209 78.6436 106.209 78.8136C106.223 78.9836 106.081 79.1252 105.897 79.1252Z" fill="black"/>
<path d="M106.336 80.5984H104.807C104.637 80.5984 104.495 80.4567 104.495 80.2867C104.495 80.1167 104.637 79.9751 104.807 79.9751H106.336C106.506 79.9751 106.648 80.1167 106.648 80.2867C106.648 80.4567 106.506 80.5984 106.336 80.5984Z" fill="black"/>
<path d="M112.073 100.274H110.543C109.977 100.274 109.396 99.8344 109.226 99.2678L108.886 98.0921C108.844 97.9222 108.929 97.7522 109.099 97.7097C109.269 97.6672 109.439 97.7522 109.481 97.9222L109.821 99.0978C109.906 99.3953 110.246 99.6503 110.529 99.6503H112.059C112.229 99.6503 112.371 99.7919 112.371 99.9619C112.385 100.146 112.243 100.274 112.073 100.274Z" fill="black"/>
<path d="M112.201 98.0213C112.059 98.0213 111.946 97.9363 111.903 97.7946L110.515 93.021C110.43 92.7236 110.09 92.4686 109.807 92.4686H108.277C108.206 92.4686 108.107 92.4828 108.05 92.5678C107.994 92.6386 107.994 92.7377 108.022 92.8511L108.291 93.7859C108.334 93.9559 108.249 94.1259 108.079 94.1684C107.909 94.2109 107.739 94.1259 107.696 93.9559L107.427 93.021C107.342 92.7094 107.385 92.4119 107.555 92.1853C107.725 91.9728 107.98 91.8453 108.291 91.8453H109.821C110.388 91.8453 110.968 92.2845 111.138 92.8511L112.527 97.6247C112.569 97.7946 112.484 97.9646 112.314 98.0071C112.257 98.0213 112.229 98.0213 112.201 98.0213Z" fill="black"/>
<path d="M110.203 93.8851H108.149C107.979 93.8851 107.838 93.7435 107.838 93.5735C107.838 93.4035 107.979 93.2618 108.149 93.2618H110.203C110.373 93.2618 110.515 93.4035 110.515 93.5735C110.515 93.7435 110.373 93.8851 110.203 93.8851Z" fill="black"/>
<path d="M110.77 95.8115H108.716C108.546 95.8115 108.404 95.6698 108.404 95.4999C108.404 95.3299 108.546 95.1882 108.716 95.1882H110.77C110.94 95.1882 111.082 95.3299 111.082 95.4999C111.082 95.6698 110.94 95.8115 110.77 95.8115Z" fill="black"/>
<path d="M119.028 53.1608H133.944C134.836 53.1608 135.757 53.8832 136.012 54.7614L138.746 64.167C139.001 65.0593 138.491 65.7676 137.612 65.7676H122.697C121.804 65.7676 120.884 65.0452 120.629 64.167L117.895 54.7614C117.626 53.869 118.136 53.1608 119.028 53.1608Z" fill="white"/>
<path d="M137.613 66.0792H122.697C121.663 66.0792 120.615 65.2718 120.317 64.2519L117.583 54.8464C117.427 54.3223 117.498 53.7982 117.796 53.4157C118.079 53.0474 118.504 52.8491 119.028 52.8491H133.944C134.978 52.8491 136.026 53.6565 136.324 54.6764L139.057 64.0819C139.213 64.6061 139.142 65.1302 138.845 65.5126C138.576 65.8809 138.137 66.0792 137.613 66.0792ZM119.028 53.4724C118.716 53.4724 118.447 53.5857 118.292 53.7982C118.122 54.0248 118.079 54.3364 118.178 54.6764L120.912 64.0819C121.125 64.8327 121.946 65.4559 122.683 65.4559H137.598C137.91 65.4559 138.179 65.3426 138.335 65.1302C138.505 64.9035 138.547 64.5919 138.448 64.2519L135.714 54.8464C135.502 54.0956 134.68 53.4724 133.944 53.4724H119.028Z" fill="black"/>
<path d="M138.066 57.1694C137.924 57.1694 137.811 57.0844 137.768 56.9427L137.542 56.1637C137.499 55.9937 137.584 55.8237 137.754 55.7812C137.924 55.7387 138.094 55.8237 138.137 55.9937L138.363 56.7728C138.406 56.9427 138.321 57.1127 138.151 57.1552C138.137 57.1694 138.094 57.1694 138.066 57.1694Z" fill="black"/>
<path d="M119.595 55.9796C119.453 55.9796 119.34 55.8946 119.297 55.7529L118.617 53.4016C118.462 52.8775 118.532 52.3534 118.83 51.9709C119.113 51.6026 119.538 51.4043 120.062 51.4043H134.978C136.012 51.4043 137.06 52.2117 137.358 53.2316L137.853 54.9172C137.896 55.0872 137.811 55.2572 137.641 55.2997C137.471 55.3422 137.301 55.2572 137.258 55.0872L136.763 53.4016C136.55 52.6508 135.729 52.0276 134.992 52.0276H120.048C119.736 52.0276 119.467 52.1409 119.311 52.3533C119.141 52.58 119.099 52.8916 119.212 53.2316L119.892 55.583C119.935 55.7529 119.85 55.9229 119.68 55.9654C119.666 55.9796 119.623 55.9796 119.595 55.9796Z" fill="black"/>
<path d="M120.7 59.7758C120.558 59.7758 120.445 59.6908 120.402 59.5492L119.751 57.3395C119.708 57.1695 119.793 56.9995 119.963 56.957C120.133 56.9145 120.303 56.9995 120.345 57.1695L120.997 59.3792C121.04 59.5492 120.955 59.7192 120.785 59.7617C120.77 59.7758 120.728 59.7758 120.7 59.7758Z" fill="black"/>
<path d="M101.18 95.2449C101.095 95.2449 101.025 95.2165 100.954 95.1599L86.8454 81.0516C86.7179 80.9241 86.7179 80.7258 86.8454 80.6125C86.9729 80.485 87.1712 80.485 87.2845 80.6125L101.393 94.7208C101.52 94.8483 101.52 95.0466 101.393 95.1599C101.336 95.2165 101.265 95.2449 101.18 95.2449Z" fill="white"/>
<path d="M90.7408 88.6865C90.6558 88.6865 90.585 88.6581 90.5142 88.6015L82.3551 80.4424C82.2277 80.315 82.2277 80.1166 82.3551 80.0033C82.4826 79.8758 82.6809 79.8758 82.7942 80.0033L90.9533 88.1623C91.0808 88.2898 91.0808 88.4881 90.9533 88.6015C90.8966 88.6581 90.8116 88.6865 90.7408 88.6865Z" fill="white"/>
<path d="M149.285 71.0086C149.157 71.0086 149.03 70.9236 148.987 70.7961C147.557 66.5183 142.925 63.0337 138.661 63.0337H133.434C128.916 63.0337 124.014 59.365 122.513 54.8463C122.456 54.6764 122.541 54.5064 122.711 54.4497C122.881 54.3931 123.051 54.4781 123.108 54.648C124.539 58.9259 129.17 62.4104 133.434 62.4104H138.661C143.18 62.4104 148.081 66.0792 149.582 70.5978C149.639 70.7678 149.554 70.9378 149.384 70.9944C149.356 70.9944 149.327 71.0086 149.285 71.0086Z" fill="black"/>
<path d="M122.371 55.1439C122.867 55.5122 123.476 55.5122 123.717 55.1439C123.972 54.7756 123.76 54.1665 123.264 53.7982C122.768 53.4299 122.159 53.4299 121.918 53.7982C121.677 54.1665 121.876 54.7756 122.371 55.1439Z" fill="white"/>
<path d="M123.136 55.7388C122.81 55.7388 122.485 55.6255 122.187 55.3988C121.55 54.9172 121.323 54.1381 121.663 53.6282C121.805 53.4157 122.031 53.2741 122.3 53.2316C122.669 53.1608 123.094 53.2882 123.462 53.5574C124.099 54.039 124.326 54.8181 123.986 55.328C123.844 55.5405 123.618 55.6821 123.349 55.7246C123.278 55.7388 123.207 55.7388 123.136 55.7388ZM122.499 53.8265C122.47 53.8265 122.428 53.8265 122.4 53.8407C122.3 53.8548 122.215 53.8973 122.173 53.9682C122.031 54.1665 122.159 54.6056 122.555 54.8889C122.782 55.0589 123.037 55.1297 123.235 55.1014C123.334 55.0872 123.419 55.0447 123.462 54.9739C123.604 54.7756 123.476 54.3365 123.079 54.0532C122.895 53.9115 122.683 53.8265 122.499 53.8265Z" fill="black"/>
<path d="M148.888 71.3344C149.384 71.7027 149.993 71.7027 150.234 71.3344C150.489 70.9661 150.276 70.357 149.781 69.9887C149.285 69.6205 148.676 69.6205 148.435 69.9887C148.18 70.357 148.393 70.952 148.888 71.3344Z" fill="white"/>
<path d="M149.653 71.9293C149.327 71.9293 149.002 71.816 148.704 71.5894C148.067 71.1078 147.84 70.3287 148.18 69.8188C148.322 69.6063 148.548 69.4646 148.817 69.4221C149.186 69.3513 149.611 69.4788 149.979 69.7479C150.616 70.2295 150.843 71.0086 150.503 71.5186C150.361 71.731 150.135 71.8727 149.866 71.9152C149.781 71.9152 149.724 71.9293 149.653 71.9293ZM149.016 70.0171C148.987 70.0171 148.945 70.0171 148.917 70.0312C148.817 70.0454 148.732 70.0879 148.69 70.1587C148.548 70.357 148.676 70.7961 149.072 71.0794C149.299 71.2494 149.554 71.3202 149.752 71.2919C149.851 71.2778 149.936 71.2353 149.979 71.1644C150.121 70.9661 149.993 70.527 149.596 70.2437C149.412 70.0879 149.2 70.0171 149.016 70.0171Z" fill="black"/>
<path d="M134.015 62.2546L135.106 60.6682C135.29 60.3849 135.743 60.3707 136.097 60.6398L138.137 62.1413C138.491 62.4105 138.633 62.8496 138.434 63.1187L137.344 64.7052C137.159 64.9885 136.706 65.0027 136.352 64.7335L134.312 63.232C133.958 62.9629 133.831 62.5238 134.015 62.2546Z" fill="white"/>
<path d="M136.89 65.2435C136.65 65.2435 136.395 65.1585 136.168 64.9885L134.128 63.487C133.632 63.1188 133.462 62.4955 133.76 62.0705L134.851 60.4841C134.978 60.2999 135.162 60.1866 135.403 60.1441C135.701 60.0874 136.026 60.1866 136.295 60.3849L138.335 61.8864C138.831 62.2547 139.001 62.8779 138.704 63.3029L137.613 64.8894C137.485 65.0735 137.301 65.1868 137.06 65.2293C137.004 65.2293 136.947 65.2435 136.89 65.2435ZM134.27 62.4247C134.185 62.538 134.27 62.8071 134.497 62.9771L136.536 64.4786C136.664 64.5777 136.82 64.6202 136.947 64.6061C137.004 64.5919 137.046 64.5636 137.075 64.5352L138.165 62.9488C138.25 62.8355 138.165 62.5663 137.939 62.3963L135.899 60.8949C135.771 60.7957 135.616 60.7532 135.488 60.7674C135.431 60.7815 135.389 60.8099 135.361 60.8382L134.27 62.4247Z" fill="black"/>
<path d="M138.873 77.6661H143.35C143.562 77.6661 143.718 77.5386 143.732 77.3545L144.752 73.9691C144.766 73.8274 144.709 73.6574 144.596 73.5158L136.692 62.9487C136.366 62.5521 135.785 62.5521 135.729 62.9487L134.851 73.5158C134.836 73.6574 134.879 73.8274 134.992 73.9691L138.264 77.3545C138.42 77.5386 138.661 77.6661 138.873 77.6661ZM137.669 72.5951C137.344 71.6318 137.868 70.8386 138.845 70.8386C139.822 70.8386 140.856 71.6177 141.182 72.5951C141.508 73.5583 140.984 74.3515 140.007 74.3515C139.029 74.3515 137.981 73.5724 137.669 72.5951Z" fill="white"/>
<path d="M143.335 77.9778H138.859C138.562 77.9778 138.236 77.822 138.023 77.5528L134.751 74.1816C134.737 74.1674 134.737 74.1674 134.723 74.1532C134.553 73.9408 134.482 73.6858 134.525 73.4591L135.389 62.9204C135.431 62.6371 135.615 62.4246 135.87 62.3538C136.225 62.2546 136.635 62.4105 136.904 62.7504L144.823 73.3175C144.978 73.5158 145.063 73.7566 145.035 73.9832C145.035 73.9974 145.035 74.0257 145.021 74.0399L144.001 77.397C143.973 77.737 143.704 77.9778 143.335 77.9778ZM135.233 73.7566L138.505 77.1279C138.519 77.142 138.519 77.142 138.533 77.1562C138.618 77.2695 138.76 77.3545 138.873 77.3545H143.35C143.42 77.3545 143.42 77.3262 143.42 77.312C143.42 77.2979 143.42 77.2695 143.435 77.2554L144.454 73.9124C144.454 73.8699 144.426 73.7991 144.369 73.7141L136.451 63.147C136.324 62.9912 136.154 62.9487 136.069 62.9771C136.055 62.9771 136.04 62.9912 136.04 63.0054L135.176 73.5441C135.148 73.5866 135.176 73.6716 135.233 73.7566ZM140.007 74.6632C138.902 74.6632 137.74 73.7991 137.372 72.6942C137.174 72.1135 137.244 71.5469 137.542 71.1361C137.825 70.7395 138.293 70.527 138.845 70.527C139.95 70.527 141.111 71.3911 141.48 72.4959C141.678 73.0767 141.607 73.6433 141.31 74.0541C141.026 74.4507 140.559 74.6632 140.007 74.6632ZM137.967 72.4959C138.25 73.3317 139.185 74.0399 140.007 74.0399C140.361 74.0399 140.63 73.9124 140.8 73.6858C140.984 73.4308 141.012 73.0767 140.885 72.6942C140.602 71.8585 139.667 71.1503 138.845 71.1503C138.491 71.1503 138.222 71.2777 138.052 71.5044C137.868 71.7593 137.839 72.1135 137.967 72.4959Z" fill="black"/>
<path d="M140.545 81.3491H144.114C144.766 81.3491 145.12 80.825 144.908 80.1734L144.766 79.7626C144.553 79.111 143.845 78.5869 143.194 78.5869H139.624C138.972 78.5869 138.618 79.111 138.831 79.7626L138.972 80.1734C139.199 80.825 139.893 81.3491 140.545 81.3491Z" fill="black"/>
<path d="M138.363 69.7479C138.236 69.7479 138.108 69.6629 138.066 69.5354C135.899 63.1754 135.899 63.1754 136.026 63.0054L136.281 63.1895L136.593 63.1329C136.649 63.3878 137.868 66.9857 138.661 69.3371C138.718 69.5071 138.633 69.6771 138.463 69.7337C138.434 69.7337 138.392 69.7479 138.363 69.7479Z" fill="black"/>
</svg>
