<svg width="255" height="240" viewBox="0 0 255 240" fill="none" xmlns="http://www.w3.org/2000/svg">
<path d="M62.5074 139.976L62.2427 139.696L63.9401 138.076L64.2048 138.356L62.5074 139.976ZM65.871 136.752L65.5907 136.472C66.1358 135.927 66.6964 135.366 67.2258 134.821L67.5061 135.086C66.9767 135.647 66.4316 136.207 65.871 136.752ZM69.1256 133.373L68.8453 133.108C69.3592 132.548 69.8887 131.956 70.387 131.364L70.6829 131.614C70.1534 132.205 69.6395 132.797 69.1256 133.373ZM72.1778 129.823L71.8819 129.574C72.3647 128.982 72.863 128.374 73.3457 127.752L73.6572 127.985C73.1589 128.624 72.6606 129.231 72.1778 129.823ZM75.0587 126.148L74.7473 125.914C75.1989 125.307 75.666 124.668 76.1176 124.03L76.4291 124.248C75.9775 124.886 75.5259 125.525 75.0587 126.148ZM77.7683 122.317L77.4413 122.099C77.8773 121.46 78.3133 120.806 78.7338 120.152L79.0608 120.37C78.6403 121.024 78.2043 121.678 77.7683 122.317ZM99.1024 119.623C98.3861 119.623 97.6542 119.483 97.0001 119.218L97.1403 118.86C97.7476 119.109 98.4172 119.234 99.0868 119.234C99.1802 119.218 99.2581 119.234 99.336 119.234L99.3515 119.623C99.2737 119.623 99.1647 119.623 99.1024 119.623ZM101.687 118.953L101.485 118.611C102.123 118.237 102.668 117.692 103.042 117.038L103.385 117.225C102.964 117.957 102.388 118.548 101.687 118.953ZM80.3221 118.393L79.9951 118.19C80.4 117.536 80.8049 116.867 81.2098 116.197L81.5368 116.399C81.1319 117.069 80.727 117.739 80.3221 118.393ZM95.0224 117.863C94.493 117.303 94.0725 116.617 93.7455 115.839L94.1037 115.683C94.4151 116.415 94.82 117.053 95.3183 117.583L95.0224 117.863ZM104.023 114.936L103.634 114.92V114.811C103.634 114.235 103.509 113.659 103.291 113.16C103.229 113.036 103.167 112.911 103.104 112.787L103.447 112.6C103.525 112.74 103.587 112.864 103.649 113.005C103.899 113.55 104.023 114.173 104.023 114.811V114.936ZM82.8604 114.515L82.5646 114.266C83.0629 113.659 83.6235 113.098 84.2308 112.584L84.48 112.88C83.8882 113.378 83.3587 113.939 82.8604 114.515ZM93.1382 113.534C93.0915 113.16 93.0759 112.787 93.0759 112.413C93.0759 112.008 93.107 111.588 93.1538 111.167L93.5431 111.214C93.4963 111.619 93.4652 112.024 93.4652 112.413C93.4652 112.771 93.4808 113.145 93.5275 113.487L93.1382 113.534ZM86.3331 111.51L86.1306 111.183C86.7847 110.778 87.501 110.404 88.2329 110.093L88.3886 110.451C87.6723 110.762 86.9715 111.12 86.3331 111.51ZM101.61 111.12C101.049 110.684 100.379 110.311 99.6163 110.015L99.7564 109.657C100.535 109.968 101.236 110.357 101.843 110.809L101.61 111.12ZM90.5532 109.688L90.4442 109.314C91.2072 109.112 91.9858 108.956 92.7644 108.862L92.8112 109.252C92.0637 109.345 91.3006 109.485 90.5532 109.688ZM97.405 109.376C96.6731 109.236 95.8945 109.158 95.1159 109.143L95.1314 108.753C95.9412 108.769 96.7198 108.862 97.4829 109.003L97.405 109.376ZM94.0881 108.971L93.7144 108.847C93.9791 108.115 94.3217 107.383 94.7421 106.713L95.0691 106.916C94.6643 107.57 94.3372 108.271 94.0881 108.971ZM96.4551 105.078L96.1748 104.814C96.2838 104.689 96.4084 104.564 96.5174 104.455C96.9534 104.019 97.4361 103.614 97.9345 103.241L98.168 103.552C97.6697 103.91 97.2026 104.315 96.7821 104.72C96.6887 104.845 96.5641 104.969 96.4551 105.078ZM100.146 102.369L99.9744 102.026C100.675 101.684 101.423 101.388 102.17 101.154L102.279 101.528C101.547 101.746 100.831 102.026 100.146 102.369ZM104.537 100.936L104.444 100.562C105.207 100.36 105.954 100.157 106.702 99.955L106.811 100.329C106.063 100.531 105.3 100.749 104.537 100.936ZM109.038 99.6591L108.929 99.2854C109.676 99.0518 110.423 98.8026 111.14 98.5535L111.264 98.9272C110.548 99.1764 109.801 99.4255 109.038 99.6591ZM113.46 98.1174L113.32 97.7593C114.052 97.479 114.768 97.1831 115.469 96.8717L115.625 97.2298C114.924 97.5257 114.192 97.8216 113.46 98.1174ZM117.758 96.2488L117.587 95.8906L119.689 94.8628L119.86 95.2054L117.758 96.2488ZM121.963 94.2088L121.791 93.8662L123.894 92.8384L124.065 93.181L121.963 94.2088ZM126.167 92.1688L125.996 91.8262L128.098 90.7984L128.269 91.141L126.167 92.1688ZM130.372 90.1288L130.2 89.7862L132.303 88.7585L132.474 89.1011L130.372 90.1288ZM134.576 88.0889L134.405 87.7463L136.507 86.7185L136.678 87.0611L134.576 88.0889Z" fill="#9192FF"/>
<path d="M127.397 15.693C127.397 15.7709 127.397 15.8488 127.413 15.9266H178.615C178.474 11.7065 174.815 8.32732 170.299 8.32732C168.851 8.32732 167.496 8.66991 166.312 9.27723C166.375 5.99147 164.802 2.84586 161.89 1.16405C157.53 -1.35867 151.815 0.354287 149.152 4.99484C148.342 6.39635 147.906 7.90687 147.813 9.40181C145.679 8.42075 143.047 7.84458 140.182 7.84458C133.112 7.84458 127.397 11.3639 127.397 15.693Z" fill="#EBEBFF"/>
<path d="M42.2166 135.32H0V135.164C0.109006 131.598 3.16118 128.795 6.96083 128.795C8.03532 128.795 9.10981 129.028 10.0753 129.496C10.1064 126.755 11.508 124.263 13.7659 122.955C15.4478 121.974 17.4566 121.725 19.3876 122.239C21.4898 122.8 23.2806 124.185 24.4018 126.148C25.0247 127.238 25.3985 128.406 25.5075 129.605C27.2983 128.81 29.4161 128.406 31.6274 128.406C37.4826 128.406 42.2322 131.349 42.2322 134.977C42.2322 135.055 42.2322 135.117 42.2166 135.195V135.32ZM0.295874 135.039H41.9363C41.9363 135.024 41.9363 135.008 41.9363 134.993C41.9363 131.536 37.3113 128.717 31.6274 128.717C29.385 128.717 27.236 129.153 25.4452 129.978L25.2583 130.072L25.2428 129.854C25.1649 128.608 24.7912 127.424 24.1527 126.303C23.0626 124.419 21.3497 123.08 19.3253 122.535C17.4566 122.036 15.5412 122.27 13.9217 123.22C11.6792 124.528 10.3245 127.02 10.3712 129.745V129.994L10.1532 129.885C9.1721 129.387 8.06647 129.122 6.96083 129.122C3.3792 129.091 0.498315 131.691 0.295874 135.039Z" fill="#9192FF"/>
<mask id="mask0_146_227" style="mask-type:luminance" maskUnits="userSpaceOnUse" x="124" y="70" width="119" height="71">
<path d="M124.766 131.115C124.766 136.083 128.799 140.132 133.782 140.132H233.85C238.817 140.132 242.866 136.098 242.866 131.115V70.2273H124.766V131.115Z" fill="white"/>
</mask>
<g mask="url(#mask0_146_227)">
<path d="M124.766 131.115C124.766 136.083 128.799 140.132 133.782 140.132H233.85C238.817 140.132 242.866 136.098 242.866 131.115V70.2273H124.766V131.115Z" fill="white"/>
</g>
<mask id="mask1_146_227" style="mask-type:luminance" maskUnits="userSpaceOnUse" x="124" y="70" width="119" height="71">
<path d="M124.766 131.115C124.766 136.083 128.799 140.132 133.782 140.132H233.85C238.817 140.132 242.866 136.098 242.866 131.115V70.2273H124.766V131.115Z" fill="white"/>
</mask>
<g mask="url(#mask1_146_227)">
<path d="M118.583 85.7685C119.969 81.3459 124.329 77.9512 129.095 77.593C133.86 77.2348 138.734 79.9289 140.82 84.1022C143.359 84.0711 145.866 85.4882 147.096 87.6372C148.326 89.7861 148.248 92.5736 146.878 94.6447C149.899 95.1742 152.609 97.1518 153.948 99.8303C155.287 102.509 155.209 105.794 153.761 108.395C157.094 106.698 161.345 106.853 164.537 108.784C167.729 110.715 169.738 114.344 169.629 117.972C171.7 114.717 175.671 112.693 179.627 112.88C183.582 113.067 187.351 115.434 189.095 118.86C190.948 113.316 195.9 108.831 201.739 107.398C207.595 105.966 214.151 107.632 218.542 111.65C225.129 112.677 229.925 119.825 228.212 126.054C231.763 128.997 233.585 133.778 232.837 138.247C232.09 142.716 228.82 146.703 224.475 148.4L111.186 148.323L101.531 105.094L118.583 85.7685Z" fill="#D1D1FF"/>
</g>
<mask id="mask2_146_227" style="mask-type:luminance" maskUnits="userSpaceOnUse" x="124" y="70" width="119" height="71">
<path d="M124.766 131.115C124.766 136.083 128.799 140.132 133.782 140.132H233.85C238.817 140.132 242.866 136.098 242.866 131.115V70.2273H124.766V131.115Z" fill="white"/>
</mask>
<g mask="url(#mask2_146_227)">
<g opacity="0.8">
<path d="M116.792 100.126C118.132 95.7037 122.352 92.2933 126.961 91.9352C131.571 91.577 136.273 94.271 138.282 98.4288C140.743 98.3977 143.156 99.8148 144.34 101.948C145.523 104.082 145.445 106.885 144.122 108.956C147.049 109.47 149.666 111.463 150.958 114.141C152.251 116.82 152.173 120.106 150.771 122.706C153.995 121.009 158.106 121.164 161.174 123.08C164.257 125.011 166.203 128.639 166.079 132.268C168.088 129.013 171.918 126.988 175.734 127.16C179.549 127.331 183.193 129.714 184.89 133.14C186.681 127.596 191.462 123.111 197.114 121.663C202.767 120.23 209.105 121.881 213.341 125.898C219.71 126.926 224.335 134.074 222.669 140.303C226.11 143.246 227.854 148.027 227.138 152.496C226.422 156.965 223.245 160.952 219.056 162.649L109.567 162.665L100.27 119.436L116.792 100.126Z" fill="white"/>
</g>
</g>
<mask id="mask3_146_227" style="mask-type:luminance" maskUnits="userSpaceOnUse" x="124" y="70" width="119" height="71">
<path d="M124.766 131.115C124.766 136.083 128.799 140.132 133.782 140.132H233.85C238.817 140.132 242.866 136.098 242.866 131.115V70.2273H124.766V131.115Z" fill="white"/>
</mask>
<g mask="url(#mask3_146_227)">
<path opacity="0.7" d="M203.826 72.1895C171.031 103.038 147.766 111.354 118.474 114.328L116.528 145.473L147.283 155.984C174.145 155.206 199.933 116.321 215.864 82.9499L203.826 72.1895Z" fill="#FFF2E0"/>
<path d="M208.451 72.5944C203.125 78.9012 195.074 84.9432 185.591 93.0875L198.532 87.8085C196.943 90.4403 194.638 94.1153 193.33 95.7037C196.32 94.3333 201.117 91.2967 202.705 89.6928C202.705 91.9352 200.011 95.6881 198.827 97.7281C205.726 91.8262 212.017 84.6006 214.042 78.2783L208.451 72.5944Z" fill="#FFA121"/>
<path opacity="0.4" d="M209.962 72.9058C206.801 77.0791 202.082 81.1124 196.507 86.5471L204.06 82.9655C203.11 84.7096 201.739 87.1389 200.976 88.1822C202.721 87.2479 205.524 85.2235 206.473 84.149C206.442 85.6128 204.854 88.0888 204.138 89.4436C208.202 85.5038 211.908 80.7231 213.154 76.5653L209.962 72.9058Z" fill="white"/>
</g>
<mask id="mask4_146_227" style="mask-type:luminance" maskUnits="userSpaceOnUse" x="124" y="70" width="119" height="71">
<path d="M124.766 131.115C124.766 136.083 128.799 140.132 133.782 140.132H233.85C238.817 140.132 242.866 136.098 242.866 131.115V70.2273H124.766V131.115Z" fill="white"/>
</mask>
<g mask="url(#mask4_146_227)">
<path d="M160.987 94.3333C161.033 95.3144 160.987 96.9495 160.006 97.5256C158.386 98.46 157.094 96.1864 156.502 95.0341C155.786 93.6637 155.972 91.9663 157.576 91.3434C159.725 90.5337 160.909 92.5113 160.987 94.3333Z" fill="#D1D1FF"/>
</g>
<mask id="mask5_146_227" style="mask-type:luminance" maskUnits="userSpaceOnUse" x="124" y="70" width="119" height="71">
<path d="M124.766 131.115C124.766 136.083 128.799 140.132 133.782 140.132H233.85C238.817 140.132 242.866 136.098 242.866 131.115V70.2273H124.766V131.115Z" fill="white"/>
</mask>
<g mask="url(#mask5_146_227)">
<path d="M238.085 123.936C238.132 124.917 238.085 126.552 237.104 127.129C235.485 128.063 234.192 125.789 233.6 124.637C232.884 123.267 233.071 121.569 234.675 120.946C236.824 120.137 238.007 122.114 238.085 123.936Z" fill="#D1D1FF"/>
</g>
<mask id="mask6_146_227" style="mask-type:luminance" maskUnits="userSpaceOnUse" x="124" y="70" width="119" height="71">
<path d="M124.766 131.115C124.766 136.083 128.799 140.132 133.782 140.132H233.85C238.817 140.132 242.866 136.098 242.866 131.115V70.2273H124.766V131.115Z" fill="white"/>
</mask>
<g mask="url(#mask6_146_227)">
<path d="M152.344 84.6785C153.101 84.6785 153.714 84.0649 153.714 83.3081C153.714 82.5513 153.101 81.9377 152.344 81.9377C151.587 81.9377 150.974 82.5513 150.974 83.3081C150.974 84.0649 151.587 84.6785 152.344 84.6785Z" fill="#D1D1FF"/>
</g>
<mask id="mask7_146_227" style="mask-type:luminance" maskUnits="userSpaceOnUse" x="118" y="64" width="134" height="113">
<path d="M145.228 171.803C147.439 176.251 152.853 178.082 157.315 175.864L246.926 131.323C251.374 129.112 253.205 123.698 250.987 119.236L223.886 64.711L118.127 117.278L145.228 171.803Z" fill="white"/>
</mask>
<g mask="url(#mask7_146_227)">
<path d="M222.567 109.746C223.591 109.237 224.009 107.994 223.5 106.97C222.991 105.945 221.748 105.528 220.723 106.037C219.699 106.546 219.282 107.789 219.791 108.813C220.3 109.838 221.543 110.255 222.567 109.746Z" fill="#D1D1FF"/>
</g>
<path d="M233.834 140.318H133.782C128.705 140.318 124.579 136.192 124.579 131.115V70.0404H243.053V131.115C243.037 136.192 238.911 140.318 233.834 140.318ZM124.968 70.4297V131.115C124.968 135.974 128.923 139.929 133.782 139.929H233.85C238.708 139.929 242.664 135.974 242.664 131.115V70.4297H124.968Z" fill="#9192FF"/>
<path d="M233.834 46.6509H133.782C128.814 46.6509 124.766 50.6841 124.766 55.6673V70.243H242.851V55.6673C242.851 50.6841 238.817 46.6509 233.834 46.6509Z" fill="white"/>
<path d="M243.037 70.4299H124.579V55.6517C124.579 50.5752 128.705 46.4485 133.782 46.4485H233.85C238.926 46.4485 243.053 50.5752 243.053 55.6517V70.4299H243.037ZM124.968 70.0406H242.664V55.6517C242.664 50.7932 238.708 46.8378 233.85 46.8378H133.782C128.923 46.8378 124.968 50.7932 124.968 55.6517V70.0406Z" fill="#9192FF"/>
<path d="M141.493 59.4309C142.035 56.7592 140.309 54.1537 137.637 53.6114C134.965 53.0691 132.36 54.7954 131.817 57.4672C131.275 60.139 133.001 62.7445 135.673 63.2868C138.345 63.8291 140.95 62.1027 141.493 59.4309Z" fill="#D1D1FF"/>
<path d="M154.693 61.9357C156.62 60.008 156.62 56.8824 154.693 54.9546C152.765 53.0269 149.639 53.0269 147.711 54.9546C145.784 56.8824 145.784 60.008 147.711 61.9357C149.639 63.8635 152.765 63.8635 154.693 61.9357Z" fill="white"/>
<path d="M151.207 63.578C148.373 63.578 146.069 61.2733 146.069 58.4392C146.069 55.605 148.373 53.3003 151.207 53.3003C154.042 53.3003 156.346 55.605 156.346 58.4392C156.346 61.2733 154.042 63.578 151.207 63.578ZM151.207 53.7052C148.591 53.7052 146.458 55.8386 146.458 58.4547C146.458 61.0709 148.591 63.2043 151.207 63.2043C153.824 63.2043 155.957 61.0709 155.957 58.4547C155.957 55.823 153.824 53.7052 151.207 53.7052Z" fill="#9192FF"/>
<path d="M188.815 63.1574H169.147C166.546 63.1574 164.429 61.0396 164.429 58.439C164.429 55.8384 166.546 53.7206 169.147 53.7206H188.815C191.415 53.7206 193.533 55.8384 193.533 58.439C193.518 61.0551 191.415 63.1574 188.815 63.1574Z" fill="white"/>
<path d="M188.815 63.3599H169.147C166.437 63.3599 164.242 61.1642 164.242 58.4546C164.242 55.745 166.437 53.5493 169.147 53.5493H188.815C191.524 53.5493 193.72 55.745 193.72 58.4546C193.72 61.1486 191.509 63.3599 188.815 63.3599ZM169.147 53.9231C166.655 53.9231 164.631 55.9475 164.631 58.439C164.631 60.9306 166.655 62.955 169.147 62.955H188.815C191.306 62.955 193.331 60.9306 193.331 58.439C193.331 55.9475 191.306 53.9231 188.815 53.9231H169.147Z" fill="#9192FF"/>
<path d="M228.945 35.906C221.065 42.8045 207.455 38.055 203.235 43.5676L215.319 53.129L228.945 35.906Z" fill="#3335CF"/>
<path d="M203.235 43.5674C202.627 45.1713 202.954 46.9777 204.091 48.2858L212.656 58.0808L215.319 53.1288L203.235 43.5674Z" fill="#D1D1FF"/>
<path d="M246.821 50.0613C241.916 59.3268 249.655 71.4732 245.264 76.8457L233.18 67.2843L246.821 50.0613Z" fill="#3335CF"/>
<path d="M245.264 76.8457C243.831 77.7956 241.994 77.9046 240.483 77.0948L228.975 71.006L233.18 67.2687L245.264 76.8457Z" fill="#D1D1FF"/>
<path d="M252.957 24.0398L242.197 27.9952L251.571 35.4076L252.957 24.0398Z" fill="#1B1B43"/>
<path d="M251.571 35.4076C250.076 52.4282 237.494 68.2964 222.233 77.1103L208.327 66.1007C214.166 47.7253 225.036 34.5823 242.212 27.9796L251.571 35.4076Z" fill="#C5C5FF"/>
<path d="M208.327 66.1162L202.285 70.2896L219.554 83.9621L222.233 77.1258L208.327 66.1162Z" fill="#3335CF"/>
<path d="M238.926 49.1192C242.47 48.6977 245.001 45.4828 244.58 41.9387C244.158 38.3945 240.944 35.8631 237.399 36.2846C233.855 36.7061 231.324 39.921 231.745 43.4651C232.167 47.0093 235.382 49.5407 238.926 49.1192Z" fill="white"/>
<path d="M238.646 47.2893L238.599 46.9C238.973 46.8533 239.331 46.7754 239.674 46.6353L239.814 46.9934C239.456 47.1491 239.051 47.2581 238.646 47.2893ZM237.432 47.2581C237.027 47.1959 236.637 47.0713 236.264 46.9156L236.419 46.5574C236.762 46.7131 237.12 46.8221 237.478 46.8688L237.432 47.2581ZM240.904 46.4172L240.671 46.1058C240.966 45.8878 241.231 45.6231 241.465 45.3272L241.776 45.5763C241.512 45.9034 241.231 46.1837 240.904 46.4172ZM235.236 46.2771C234.924 46.0124 234.644 45.7165 234.411 45.3895L234.722 45.1715C234.94 45.4673 235.189 45.7476 235.485 45.9812L235.236 46.2771ZM242.243 44.8444L241.901 44.6576C242.072 44.3305 242.197 43.9724 242.275 43.6142L242.648 43.6921C242.57 44.097 242.43 44.4863 242.243 44.8444ZM233.85 44.315C233.71 43.9412 233.616 43.5364 233.585 43.1315L233.975 43.1003C234.006 43.4741 234.084 43.8322 234.224 44.1904L233.85 44.315ZM242.368 42.5086C242.352 42.1348 242.275 41.7611 242.166 41.4185L242.539 41.2939C242.664 41.6833 242.742 42.0881 242.757 42.493L242.368 42.5086ZM234.021 41.9791L233.632 41.9168C233.71 41.512 233.834 41.1226 234.006 40.7645L234.364 40.9358C234.193 41.2472 234.084 41.6054 234.021 41.9791ZM241.683 40.4063C241.48 40.0949 241.231 39.8146 240.951 39.5654L241.216 39.2695C241.527 39.5343 241.792 39.8457 242.01 40.1883L241.683 40.4063ZM234.956 39.9859L234.66 39.7367C234.924 39.4253 235.236 39.145 235.563 38.9269L235.781 39.254C235.485 39.4408 235.205 39.69 234.956 39.9859ZM240.032 38.9425C239.705 38.7712 239.347 38.6622 238.973 38.5844L239.051 38.195C239.456 38.2729 239.845 38.4131 240.203 38.5844L240.032 38.9425ZM236.778 38.7401L236.653 38.3663C237.042 38.2262 237.432 38.1483 237.836 38.1172L237.868 38.5065C237.494 38.5376 237.136 38.6155 236.778 38.7401Z" fill="#9192FF"/>
<path d="M206.349 83.2146L206.038 82.9654C205.586 82.6072 205.508 81.9532 205.866 81.5016L217.982 66.2096C218.34 65.758 218.994 65.6801 219.445 66.0383L219.757 66.2874C220.208 66.6456 220.286 67.2996 219.928 67.7512L207.813 83.0433C207.455 83.4949 206.801 83.5727 206.349 83.2146Z" fill="#1B1B43"/>
<path d="M227.792 216.529H225.456V216.14H227.792V216.529ZM223.12 216.529H220.784V216.14H223.12V216.529ZM218.448 216.529H216.113V216.14H218.448V216.529ZM213.777 216.529H211.441V216.14H213.777V216.529ZM209.105 216.529H206.769V216.14H209.105V216.529ZM204.433 216.529H202.097V216.14H204.433V216.529ZM199.762 216.529H197.426V216.14H199.762V216.529ZM195.09 216.529H192.754V216.14H195.09V216.529ZM190.418 216.529H188.082V216.14H190.418V216.529ZM185.747 216.529H183.411V216.14H185.747V216.529ZM181.075 216.529C180.265 216.529 179.471 216.389 178.723 216.124L178.848 215.751C179.564 216 180.312 216.124 181.075 216.124V216.529ZM228.072 216.529L228.057 216.14C228.82 216.109 229.567 215.969 230.268 215.704L230.408 216.062C229.66 216.342 228.882 216.498 228.072 216.529ZM176.621 215.003C175.983 214.521 175.438 213.929 174.986 213.275L175.313 213.057C175.749 213.68 176.263 214.24 176.87 214.692L176.621 215.003ZM232.495 214.863L232.246 214.567C232.837 214.085 233.351 213.524 233.756 212.885L234.083 213.103C233.647 213.757 233.118 214.365 232.495 214.863ZM173.958 211.11C173.771 210.456 173.678 209.755 173.678 209.07V208.759H174.067V209.07C174.067 209.724 174.161 210.378 174.332 211.001L173.958 211.11ZM235.033 210.908L234.659 210.814C234.799 210.254 234.877 209.662 234.877 209.07V208.541H235.267V209.07C235.267 209.678 235.189 210.3 235.033 210.908ZM174.067 206.407H173.678V204.071H174.067V206.407ZM235.267 206.205H234.877V203.869H235.267V206.205ZM174.067 201.736H173.678V199.4H174.067V201.736ZM235.267 201.533H234.877V199.197H235.267V201.533ZM174.067 197.064H173.678V194.728H174.067V197.064ZM235.267 196.862H234.877V194.526H235.267V196.862ZM174.067 192.392H173.678V190.056H174.067V192.392ZM235.267 192.19H234.877V189.854H235.267V192.19ZM174.067 187.721H173.678V185.385H174.067V187.721ZM235.267 187.518H234.877V185.182H235.267V187.518ZM174.067 183.049H173.678V181.492C173.678 181.227 173.694 180.962 173.725 180.697L174.114 180.744C174.083 180.993 174.067 181.242 174.067 181.507V183.049ZM235.267 182.846H234.877V181.492C234.877 181.165 234.862 180.853 234.815 180.542L235.204 180.495C235.251 180.822 235.267 181.165 235.267 181.507V182.846ZM174.706 178.548L174.348 178.393C174.675 177.661 175.126 176.991 175.671 176.415L175.952 176.68C175.438 177.225 175.017 177.863 174.706 178.548ZM234.145 178.377C233.803 177.692 233.367 177.069 232.837 176.54L233.118 176.259C233.678 176.835 234.145 177.49 234.503 178.206L234.145 178.377ZM177.742 175.278L177.555 174.936C178.256 174.546 179.019 174.282 179.813 174.141L179.876 174.531C179.128 174.655 178.412 174.92 177.742 175.278ZM231.015 175.185C230.346 174.842 229.614 174.609 228.866 174.484L228.929 174.095C229.723 174.219 230.486 174.453 231.202 174.827L231.015 175.185ZM226.562 174.422H224.226V174.032H226.562V174.422ZM221.89 174.422H219.554V174.032H221.89V174.422ZM217.218 174.422H214.882V174.032H217.218V174.422ZM212.547 174.422H210.211V174.032H212.547V174.422ZM207.875 174.422H205.539V174.032H207.875V174.422ZM203.203 174.422H200.867V174.032H203.203V174.422ZM198.531 174.422H196.196V174.032H198.531V174.422ZM193.86 174.422H191.524V174.032H193.86V174.422ZM189.188 174.422H186.852V174.032H189.188V174.422ZM184.516 174.422H182.18V174.032H184.516V174.422Z" fill="#9192FF"/>
<path d="M223.541 209.787H173.849C170.673 209.787 168.103 207.217 168.103 204.04V172.257C168.103 169.081 170.673 166.511 173.849 166.511H223.541C226.718 166.511 229.287 169.081 229.287 172.257V204.04C229.287 207.202 226.702 209.787 223.541 209.787Z" fill="#9192FF"/>
<path d="M185.342 191.785H178.724V205.239H185.342V191.785Z" fill="white"/>
<path d="M196.445 192.221H189.827V205.239H196.445V192.221Z" fill="white"/>
<path d="M207.532 185.416H200.914V205.239H207.532V185.416Z" fill="white"/>
<path d="M218.635 179.592H212.017V205.239H218.635V179.592Z" fill="white"/>
<path d="M216.455 172.6H180.904V174.157H216.455V172.6Z" fill="white"/>
<path d="M72.6608 124.263C71.5396 120.355 69.1571 116.929 65.8713 114.515L64.5632 113.55L65.6844 136.628L74.3115 129.947L72.6608 124.263Z" fill="#FFA121"/>
<path d="M100.38 152.169L98.4642 148.416C97.9814 147.466 97.1094 146.765 96.0816 146.469L90.4444 144.912L75.931 135.647L74.2959 129.963L65.6688 136.643L65.7467 138.263C65.9024 141.517 67.8957 144.398 70.8856 145.691L84.9785 151.764L91.6746 151.92C93.8392 152.667 94.5711 154.52 95.9103 153.851C96.4086 153.602 94.4621 150.394 94.4621 150.394L97.7011 153.96L100.38 152.169Z" fill="#FFBC96"/>
<path d="M75.7739 135.5L73.8789 137.731L74.2232 138.024L76.1182 135.792L75.7739 135.5Z" fill="#D28572"/>
<path d="M75.1523 161.512L85.7104 160.578C92.5778 159.971 98.5576 165.514 98.8846 172.818L101.267 224.798L86.707 225.25L75.1523 161.512Z" fill="#26289C"/>
<path d="M87.8749 224.736L88.3265 239.094H109.91L99.2583 230.249L98.5886 223.319L87.8749 224.736Z" fill="#1B1B43"/>
<path d="M98.9956 229.891L94.4558 233.388L94.9975 234.092L99.5373 230.594L98.9956 229.891Z" fill="white"/>
<path d="M82.9697 224.736L83.4213 239.094H104.989L94.3531 230.249L93.6835 223.319L82.9697 224.736Z" fill="#D1D1FF"/>
<path d="M94.0769 229.897L89.5371 233.395L90.0788 234.098L94.6186 230.601L94.0769 229.897Z" fill="white"/>
<path d="M99.0403 226.153H81.1788L68.4562 187.004L66.681 181.523L41.2358 181.414C39.663 181.398 38.1524 180.666 36.8911 179.592C34.1815 177.318 32.9357 173.721 33.434 170.217L35.6609 154.287L73.4549 159.208C80.6182 160.142 86.4111 165.499 87.8905 172.584L99.0403 226.153Z" fill="#3335CF"/>
<path d="M71.9289 181.507L68.4563 186.989L66.681 181.507H71.9289Z" fill="#1B1B43"/>
<path d="M67.2415 151.406C67.0547 152.138 66.8678 152.885 66.6654 153.617L65.3261 159.083L47.6983 158.351L35.0068 157.822C31.6432 157.682 29.1983 154.552 29.8835 151.266L35.801 122.784C36.564 117.941 40.4883 114.219 45.378 113.705L59.8603 112.21L64.5475 113.55C69.1258 116.01 69.1258 120.448 69.3438 123.376C70.3093 136.129 69.1258 143.853 67.2415 151.406Z" fill="#FFA121"/>
<path opacity="0.3" d="M55.2976 150.487C55.1107 151.219 66.8834 152.87 66.681 153.617L65.3418 159.083L47.7139 158.351C41.5472 153.711 39.2425 143.589 37.0001 130.928L55.2976 150.487Z" fill="#1B1B43"/>
<path d="M51.7938 120.448C52.5725 121.273 53.4445 122.005 54.4256 122.535C55.4066 123.08 56.4655 123.469 57.5712 123.594C58.6612 123.734 59.8136 123.64 60.7791 123.126C61.7601 122.644 62.383 121.616 62.5076 120.495L62.6789 120.51C62.6789 121.086 62.5232 121.678 62.2429 122.208C61.947 122.737 61.4954 123.173 60.9815 123.469C59.9382 124.076 58.6924 124.185 57.5245 124.045C56.3565 123.889 55.2353 123.469 54.2387 122.877C53.2421 122.286 52.37 121.491 51.6537 120.573L51.7938 120.448Z" fill="#1B1B43"/>
<path d="M69.7487 137.858L69.4217 137.827C69.7487 133.342 69.4217 127.814 68.4562 121.429L68.7832 121.382C69.7487 127.798 70.0757 133.342 69.7487 137.858Z" fill="#1B1B43"/>
<path d="M99.7099 153.695H83.1254V156.965H99.7099V153.695Z" fill="#1B1B43"/>
<path d="M128.425 156.965H95.1005L110.424 127.658H143.748L128.425 156.965Z" fill="#9192FF"/>
<path d="M55.4688 88.774C51.5602 84.9276 44.1945 86.5471 44.3035 93.0096C36.2681 95.1275 35.8165 103.941 39.0556 108.473L41.843 108.691L42.4504 105.405L44.0699 108.753L51.8872 109.252L55.4688 88.774Z" fill="#1B1B43"/>
<path d="M61.9936 103.178V115.481C61.9936 115.59 61.9936 115.699 61.978 115.808C61.7911 118.346 59.3307 120.121 56.8236 119.483C53.1329 118.533 50.5635 115.185 50.5946 111.37L50.6569 103.178H61.9936Z" fill="#FFBC96"/>
<path d="M61.9936 108.489V115.465C61.9936 115.574 61.9936 115.683 61.978 115.792C58.6922 115.247 54.8926 111.447 53.9583 107.305L61.9936 108.489Z" fill="#1B1B43"/>
<path d="M68.6429 104.082C68.4716 105.063 68.2381 106.059 67.9422 107.009C66.9611 110.124 65.2014 112.724 62.0403 112.273C54.6278 111.214 50.4856 103.568 50.4856 103.568L55.5622 97.7592L58.9725 93.1809L69.188 97.5879C69.188 97.5879 69.2347 100.718 68.6429 104.082Z" fill="#FFBC96"/>
<path d="M52.6969 101.606C55.9515 101.497 58.4742 99.846 59.5487 95.1276C59.5487 95.1276 67.1324 101.668 70.8542 98.1798C73.9687 95.2522 68.6897 88.5094 59.938 87.7152C56.7457 87.4193 53.5689 88.4159 51.0773 90.4248C46.8417 93.8195 46.4368 101.73 50.3922 104.455L52.6969 101.606Z" fill="#1B1B43"/>
<path d="M48.8817 93.3522C48.6637 92.5892 48.835 91.7327 49.1776 91.0008C49.5202 90.2689 50.0652 89.6148 50.7037 89.1165C51.3421 88.6182 52.1052 88.2601 52.8838 88.0888C53.678 87.933 54.5189 87.9486 55.2352 88.2756C54.4877 88.5248 53.8337 88.7739 53.2108 89.0854C52.6035 89.3968 52.0273 89.755 51.4978 90.1755C50.9684 90.5803 50.4856 91.0475 50.034 91.5614C49.6136 92.0753 49.2243 92.6359 48.8817 93.3522Z" fill="#FFA121"/>
<path d="M52.8553 104.985C54.1567 104.464 54.7014 102.767 54.0718 101.194C53.4422 99.6209 51.8768 98.768 50.5753 99.2889C49.2738 99.8099 48.7291 101.507 49.3587 103.08C49.9883 104.653 51.5538 105.506 52.8553 104.985Z" fill="#FFBC96"/>
<path d="M51.7159 103.817C51.7782 103.272 51.7782 102.758 51.6225 102.291C51.4668 101.808 51.1709 101.403 50.8127 100.983L50.9218 100.843C51.4201 101.107 51.8561 101.574 52.043 102.151C52.2298 102.727 52.152 103.365 51.8872 103.864L51.7159 103.817Z" fill="#1B1B43"/>
<path d="M63.909 102.166C63.909 102.633 63.5664 103.007 63.1615 103.007C62.7567 103.007 62.4141 102.633 62.4141 102.166C62.4141 101.699 62.7567 101.325 63.1615 101.325C63.5664 101.325 63.909 101.714 63.909 102.166Z" fill="#1B1B43"/>
<path d="M67.8644 102.836C67.8177 103.241 67.4751 103.537 67.1013 103.49C66.7276 103.443 66.4784 103.085 66.5252 102.665C66.5719 102.26 66.9145 101.964 67.2882 102.01C67.6619 102.057 67.9111 102.415 67.8644 102.836Z" fill="#1B1B43"/>
<path d="M63.8623 100.079C63.8935 100.469 63.2706 100.5 62.3518 100.531C61.433 100.562 60.7946 100.843 60.7946 100.593C60.7946 100.344 61.4642 99.7057 62.3674 99.5656C63.3173 99.4099 63.8312 99.6123 63.8623 100.079Z" fill="#1B1B43"/>
<path d="M66.8054 100.453C66.7431 100.843 67.1947 100.936 67.8799 101.061C68.5651 101.185 69.0011 101.528 69.0323 101.279C69.0634 101.029 68.6274 100.344 67.9733 100.095C67.3037 99.8459 66.8833 100.002 66.8054 100.453Z" fill="#1B1B43"/>
<path d="M65.7154 103.521C65.8867 103.739 66.0891 103.926 66.276 104.113L66.5718 104.393C66.6808 104.486 66.7899 104.595 66.8833 104.751C66.93 104.829 66.9767 104.938 66.9767 105.047C66.9923 105.156 66.9456 105.281 66.8989 105.359C66.7899 105.53 66.6653 105.639 66.5407 105.717C66.276 105.888 65.9801 105.966 65.6998 106.013L65.6375 105.857C65.8711 105.701 66.1202 105.561 66.3071 105.405C66.4005 105.327 66.4784 105.234 66.5096 105.156C66.5407 105.078 66.5407 105.063 66.494 104.969C66.4005 104.813 66.1358 104.595 65.9801 104.362C65.7932 104.144 65.6375 103.879 65.5441 103.599L65.7154 103.521Z" fill="#1B1B43"/>
<path d="M61.9313 106.277C62.3829 106.791 62.8656 107.274 63.4262 107.585C63.9868 107.897 64.6409 107.99 65.3261 107.912L65.3728 108.084C65.0458 108.224 64.672 108.302 64.2983 108.286C63.9245 108.27 63.5508 108.161 63.2238 107.975C62.5698 107.601 62.087 107.025 61.7911 106.371L61.9313 106.277Z" fill="#1B1B43"/>
<path opacity="0.2" d="M59.2528 105.795C60.2677 105.795 61.0904 104.972 61.0904 103.957C61.0904 102.942 60.2677 102.12 59.2528 102.12C58.238 102.12 57.4153 102.942 57.4153 103.957C57.4153 104.972 58.238 105.795 59.2528 105.795Z" fill="#FE5B52"/>
<path opacity="0.2" d="M68.643 104.082C68.4717 105.063 68.2381 106.059 67.9423 107.009C67.662 106.682 67.4751 106.262 67.4751 105.794C67.4907 105.016 67.9734 104.362 68.643 104.082Z" fill="#FE5B52"/>
<path d="M47.636 125.867L37.0001 130.928L40.3326 138.839L51.4824 133.684L47.636 125.867Z" fill="#FFA121"/>
<path d="M87.0339 153.29C86.738 153.15 86.5511 153.041 86.5511 153.041L86.6602 152.839C86.6602 152.839 86.8626 152.932 87.1429 153.088L87.0339 153.29Z" fill="#C5C5FF"/>
<path d="M91.4564 154.396C91.1138 155.081 88.482 153.866 87.2518 153.274C88.2017 153.804 89.8368 154.832 89.1205 155.408C88.5288 155.859 87.2363 154.894 83.0006 153.134C83.6391 153.43 87.4387 155.237 86.4732 155.922C85.4299 156.669 80.9762 155.034 80.9762 155.034L77.0987 157.121H72.6294L56.5743 157.23C55.5621 157.23 54.5655 157.105 53.6 156.856C51.7002 156.373 49.8938 155.423 48.3833 154.146C47.4178 153.337 46.5925 152.402 45.9073 151.359C45.3934 150.58 44.9418 149.755 44.5836 148.883L40.3324 138.839L51.4822 133.684L57.3062 145.504L76.5069 149.677L81.8638 148.338C83.0162 148.042 84.6512 148.54 85.6635 149.148C88.1239 150.658 91.7678 153.742 91.4564 154.396Z" fill="#FFBC96"/>
<path opacity="0.2" d="M53.8804 155.174C53.8804 155.766 53.7714 156.311 53.5846 156.841C51.6848 156.358 49.8784 155.408 48.3678 154.131C47.4024 153.321 46.577 152.387 45.8918 151.344C46.7328 150.658 47.8072 150.254 48.9752 150.254C51.6848 150.269 53.8804 152.465 53.8804 155.174Z" fill="#FE5B52"/>
<path d="M76.4758 149.584C77.7995 149.148 79.1543 148.759 80.5246 148.478C81.2098 148.338 81.9106 148.214 82.6269 148.182C82.9851 148.167 83.3432 148.167 83.7014 148.214C83.8883 148.245 84.0596 148.291 84.2309 148.338C84.4021 148.4 84.5734 148.463 84.7292 148.525C86.0372 149.117 87.174 149.958 88.2797 150.83C89.3853 151.702 90.4131 152.652 91.4253 153.633L91.472 153.679L91.4876 153.742C91.5187 153.96 91.5031 154.147 91.3785 154.349C91.3007 154.427 91.2384 154.52 91.1294 154.567C91.036 154.629 90.9425 154.645 90.8491 154.661C90.4754 154.723 90.1483 154.645 89.8525 154.567C89.2296 154.396 88.6845 154.115 88.1239 153.835C87.5789 153.539 87.0339 153.243 86.52 152.916C85.9905 152.605 85.4922 152.247 84.9627 151.92L85.1963 151.546C86.1151 152.091 87.0027 152.652 87.8436 153.306C88.2641 153.633 88.6845 153.96 89.0427 154.411C89.1361 154.52 89.214 154.645 89.2763 154.801C89.3074 154.879 89.323 154.972 89.323 155.065C89.3074 155.174 89.2763 155.283 89.214 155.377C89.0738 155.533 88.9025 155.595 88.7624 155.626C88.6067 155.673 88.4821 155.673 88.3264 155.688H88.2797L88.2329 155.673L83.3899 153.648L83.5301 153.306C84.2931 153.664 85.0406 154.038 85.7414 154.505C86.084 154.754 86.4577 154.972 86.7068 155.408C86.7691 155.517 86.8003 155.688 86.7536 155.828C86.6913 155.984 86.5667 156.078 86.4733 156.124C86.2553 156.233 86.0217 156.264 85.8037 156.28C84.9316 156.296 84.1218 156.093 83.3121 155.891C82.5023 155.673 81.7081 155.424 80.9295 155.143L80.9918 154.972C81.7704 155.237 82.5646 155.47 83.3744 155.657C84.1686 155.844 84.9939 156.015 85.7881 155.969C86.1618 155.953 86.6134 155.782 86.4421 155.533C86.2708 155.237 85.9127 154.988 85.5856 154.77C84.9005 154.333 84.153 153.96 83.4055 153.633L83.5457 153.29L88.4042 155.283L88.3108 155.268C88.4354 155.252 88.56 155.252 88.6534 155.221C88.7624 155.206 88.8558 155.143 88.887 155.112C88.9493 155.081 88.8558 154.847 88.7157 154.661C88.4042 154.287 87.9994 153.96 87.5945 153.648C86.7691 153.025 85.8815 152.465 84.9783 151.935L85.2119 151.562C85.7258 151.889 86.2241 152.247 86.7536 152.558C87.2675 152.885 87.7969 153.181 88.3264 153.477C88.8714 153.742 89.4164 154.022 89.977 154.178C90.2573 154.256 90.5532 154.318 90.7868 154.271L90.8802 154.256C90.9114 154.256 90.927 154.224 90.9425 154.224C90.9892 154.209 91.0048 154.162 91.0515 154.147C91.0983 154.084 91.1138 153.96 91.0982 153.866L91.1605 153.975C90.1795 152.994 89.1361 152.06 88.0616 151.188C86.9872 150.316 85.8659 149.459 84.6357 148.883L84.1686 148.696C84.0128 148.665 83.8415 148.618 83.6858 148.572C83.3588 148.525 83.0162 148.525 82.6736 148.541C81.9884 148.572 81.3033 148.665 80.6181 148.79C79.2477 149.039 77.8929 149.397 76.5693 149.802L76.4758 149.584Z" fill="#D28572"/>
<path d="M40.3948 138.995L40.2546 138.683L51.2643 133.607L46.686 122.877L46.9819 122.737L51.7003 133.778L40.3948 138.995Z" fill="#1B1B43"/>
<path d="M41.9834 185.976H41.3916V236.275H41.9834V185.976Z" fill="#1B1B43"/>
<path d="M55.749 188.203H27.6254C25.71 188.203 24.1683 186.662 24.1683 184.746C24.1683 182.831 25.71 181.289 27.6254 181.289H55.749C57.6644 181.289 59.2061 182.831 59.2061 184.746C59.2061 186.662 57.6488 188.203 55.749 188.203Z" fill="#D1D1FF"/>
<path d="M53.5068 239.545H29.8524V238.969C29.8524 236.104 32.1883 233.768 35.0536 233.768H48.3056C51.1709 233.768 53.5068 236.104 53.5068 238.969V239.545Z" fill="#D1D1FF"/>
<path d="M75.7113 160.031L75.2108 160.347L125.059 239.36L125.559 239.045L75.7113 160.031Z" fill="#1B1B43"/>
<path d="M125.056 160.052L75.1892 239.047L75.6896 239.363L125.556 160.368L125.056 160.052Z" fill="#1B1B43"/>
<path d="M144.06 156.965H56.7146V163.552H144.06V156.965Z" fill="#D1D1FF"/>
<path d="M64.0332 51.9454C53.9579 51.9454 45.7825 43.7543 45.7825 33.6946C45.7825 23.6349 53.9735 15.4438 64.0332 15.4438C74.093 15.4438 82.284 23.6349 82.284 33.6946C82.284 43.7543 74.093 51.9454 64.0332 51.9454ZM64.0332 15.8332C54.176 15.8332 46.1718 23.8529 46.1718 33.6946C46.1718 43.5519 54.1915 51.5561 64.0332 51.5561C73.875 51.5561 81.8947 43.5363 81.8947 33.6946C81.8947 23.8373 73.875 15.8332 64.0332 15.8332Z" fill="#9192FF"/>
<path d="M76.3666 46.4017C87.332 46.4017 96.2213 37.5124 96.2213 26.547C96.2213 15.5815 87.332 6.69226 76.3666 6.69226C65.4011 6.69226 56.5118 15.5815 56.5118 26.547C56.5118 37.5124 65.4011 46.4017 76.3666 46.4017Z" fill="#EBEBFF"/>
<path d="M76.3821 26.9207L65.3724 18.2936L65.7306 17.8264L76.3665 26.1732L82.2996 21.1433L82.6733 21.5949L76.3821 26.9207Z" fill="#1B1B43"/>
<path d="M24.838 69.371H14.7471C13.1276 69.371 11.804 70.679 11.804 72.3141V82.405C11.804 84.0245 13.112 85.3482 14.7471 85.3482H21.9415L25.0404 89.6306V85.3326C26.5665 85.2236 27.7656 83.9622 27.7656 82.405V72.3141C27.7812 70.6946 26.4575 69.371 24.838 69.371Z" fill="white"/>
<path d="M25.2427 90.2223L21.848 85.535H14.747C13.0185 85.535 11.6169 84.1335 11.6169 82.405V72.3141C11.6169 70.5856 13.0185 69.1841 14.747 69.1841H24.8379C26.5664 69.1841 27.9679 70.5856 27.9679 72.3141V82.405C27.9679 83.9778 26.7844 85.3014 25.2427 85.5039V90.2223ZM14.747 69.5734C13.2365 69.5734 12.0063 70.8036 12.0063 72.3141V82.405C12.0063 83.9155 13.2365 85.1457 14.747 85.1457H22.0504L24.8534 89.0232V85.1457L25.0403 85.1302C26.4729 85.0211 27.5786 83.8221 27.5786 82.3894V72.2985C27.5786 70.788 26.3484 69.5578 24.8379 69.5578H14.747V69.5734Z" fill="#9192FF"/>
<path d="M19.5901 82.545L15.5569 76.7054L16.5068 76.0514L19.4811 80.3338L23.9504 72.3296L24.9781 72.9058L19.5901 82.545Z" fill="#9192FF"/>
<path d="M247.102 238.954H7.84839V239.545H247.102V238.954Z" fill="#1B1B43"/>
</svg>
